<svg width="24" height="24" viewBox="0 0 24 24" fill="none" xmlns="http://www.w3.org/2000/svg">
<g opacity="0.8">
<path fill-rule="evenodd" clip-rule="evenodd" d="M1 1L23 4.72275V9.49514H21.2837V21.604H22.2979V23H1.70213V21.604H2.71631V9.49514H1V1ZM4.12057 9.49514V21.604H5.29078V13.1535H6.69504V17.0297H10.1277V21.604H11.2979V16.0297H8.99645V14.6337H15.4326V16.0297H12.7021V21.604H13.8723V17.0297H17.305V13.1535H18.7092V21.604H19.8794V9.49514H4.12057ZM21.1102 8.0991H21.5957V7.44174L21.1102 8.0991ZM21.0586 5.81035L17.3935 5.19014L14.5283 8.0991H19.3679L21.0586 5.81035ZM12.563 8.0991L15.7089 4.90509L12.2271 4.31591L8.19035 8.0991H12.563ZM6.14321 8.0991L10.493 4.02248L5.82035 3.23179L2.40426 6.89282V8.0991H6.14321ZM2.40426 4.84007L4.16613 2.95187L2.40426 2.65373V4.84007ZM17.305 21.604V18.4258H15.2766V21.604H17.305ZM8.7234 21.604V18.4258H6.69504V21.604H8.7234Z" fill="#493B2B"/>
</g>
</svg>
