<svg width="24" height="24" viewBox="0 0 24 24" fill="none" xmlns="http://www.w3.org/2000/svg">
<g opacity="0.8">
<path fill-rule="evenodd" clip-rule="evenodd" d="M19.2004 13.2H14.9004V17.5H19.2004V13.2ZM17.8004 16.1H16.4004V14.6H17.8004V16.1Z" fill="#493B2B"/>
<path fill-rule="evenodd" clip-rule="evenodd" d="M4.2998 13.2H8.5998V17.5H4.2998V13.2ZM5.7998 16.1H7.1998V14.6H5.7998V16.1Z" fill="#493B2B"/>
<path fill-rule="evenodd" clip-rule="evenodd" d="M23.1 12V5.8H16.3C15.9 3.6 14.1 2 11.8 2C9.5 2 7.6 3.6 7.3 5.8H1V12H2.3V20.8H1.2V22.2H22.4V20.8H21.5V12H23.1ZM11.8 3.4C13.3 3.4 14.5 4.4 14.8 5.7H8.7C9.1 4.4 10.3 3.4 11.8 3.4ZM2.4 7.2H21.6V8.2H2.4V7.2ZM10.6 20.8V17C10.6 16.2 11.2 15.6 11.8 15.6C12.4 15.6 13 16.1 13 17V20.8H10.6ZM20 20.8H14.4V17C14.4 15.5 13.3 14.2 11.8 14.2C10.3 14.2 9.1 15.5 9.1 17V20.8H3.8V12H20V20.8ZM2.4 10.6V9.6H21.6V10.6H2.4Z" fill="#493B2B"/>
</g>
</svg>
