<svg width="24" height="24" viewBox="0 0 24 24" fill="none" xmlns="http://www.w3.org/2000/svg">
<g opacity="0.8">
<path fill-rule="evenodd" clip-rule="evenodd" d="M7.13955 3.24585C4.00355 3.24585 2.33055 6.00309 2.94679 7.956C2.95139 7.97058 2.95555 7.98529 2.95925 8.00012L6.35925 21.6265H7.10875L5.29442 13.2607C5.29043 13.2423 5.28713 13.2238 5.28454 13.2051C5.17992 12.4532 5.09101 11.2841 5.49207 10.2299C5.69849 9.68727 6.0382 9.16553 6.57309 8.75667C7.10703 8.34853 7.79246 8.08572 8.63936 7.99185C10.1799 7.82108 11.1964 8.31708 11.8561 9.07804C12.0108 9.25635 12.144 9.4502 12.2589 9.64495C12.4441 9.42783 12.653 9.21904 12.8788 9.02929C13.6363 8.39293 14.7116 7.86338 15.9706 7.99111C17.5566 8.152 18.5685 9.02917 19.068 10.1244C19.5406 11.1608 19.5457 12.3641 19.2374 13.3023L17.3981 21.6265H18.1826L21.3941 8.00953L21.3952 8.00507C21.6218 7.06955 21.4908 5.85159 20.9132 4.88767C20.3593 3.96327 19.383 3.24586 17.8 3.24586C16.0637 3.24586 14.9503 3.73058 14.2275 4.34034C13.4953 4.95801 13.0979 5.76013 12.8998 6.49537C12.8128 6.81858 12.5221 7.04497 12.1874 7.05021C11.8527 7.05546 11.5551 6.83829 11.4579 6.51797C11.017 5.064 9.81531 3.24585 7.13955 3.24585ZM19.7238 21.6265H22.6646V23.1265H1.96884V21.6265H4.81326L1.50916 8.38445C0.570981 5.3525 3.12605 1.74585 7.13955 1.74585C9.7222 1.74585 11.2838 3.05636 12.1605 4.4643C12.4408 4.01667 12.8007 3.58146 13.2603 3.19381C14.2937 2.32201 15.7659 1.74586 17.8 1.74586C19.9285 1.74586 21.3845 2.75589 22.1999 4.11667C22.9911 5.43714 23.1667 7.06094 22.8535 8.35597L22.853 8.35831L19.7238 21.6265ZM15.8619 21.6265L17.7813 12.94C17.7873 12.9127 17.7949 12.8858 17.8039 12.8594C18.0129 12.2474 18.011 11.4219 17.7032 10.7468C17.4152 10.1153 16.852 9.58823 15.8193 9.48345C15.0847 9.40893 14.3985 9.71171 13.8437 10.1778C13.2663 10.6629 12.9584 11.2165 12.9076 11.4437C12.8368 11.7604 12.5702 11.9957 12.2471 12.0267C11.924 12.0576 11.6177 11.8772 11.488 11.5796C11.4286 11.4431 11.3755 11.309 11.3236 11.1777C11.1641 10.7743 11.0152 10.3979 10.7228 10.0607C10.408 9.69761 9.88942 9.36247 8.80461 9.48271C8.17722 9.55226 7.76337 9.73486 7.48402 9.94839C7.20561 10.1612 7.018 10.4374 6.89404 10.7632C6.63772 11.437 6.67149 12.2735 6.76644 12.971L8.64363 21.6265H9.24324L8.56599 17.5685C8.41924 16.968 8.45349 16.2469 8.73212 15.6311C9.03065 14.9714 9.63164 14.4079 10.5534 14.3425C11.3284 14.2875 11.9205 14.5489 12.3418 14.9341C12.3517 14.9431 12.3614 14.9522 12.3711 14.9613C12.7126 14.6215 13.193 14.3406 13.8615 14.3406C14.3632 14.3406 14.8052 14.4727 15.1604 14.7445C15.5103 15.0123 15.7137 15.3678 15.8294 15.7087C16.0509 16.3614 15.994 17.0882 15.9352 17.5172C15.9338 17.5275 15.9322 17.5378 15.9304 17.548L15.1973 21.6265H15.8619ZM13.6733 21.6265L14.4511 17.2986C14.5015 16.9225 14.512 16.4942 14.409 16.1908C14.3617 16.0516 14.3035 15.9776 14.2489 15.9358C14.1996 15.8981 14.0942 15.8406 13.8615 15.8406C13.671 15.8406 13.5393 15.9109 13.414 16.04C13.2701 16.1882 13.1574 16.3934 13.0502 16.6207C12.9235 16.8893 12.6503 17.0578 12.3534 17.0505C12.0566 17.0432 11.792 16.8615 11.6787 16.587C11.5959 16.3866 11.4859 16.184 11.3296 16.0412C11.1974 15.9203 11.0049 15.8143 10.6595 15.8387C10.3829 15.8584 10.2126 15.9978 10.0987 16.2496C9.97018 16.5336 9.94672 16.9165 10.0271 17.2281C10.0325 17.2491 10.037 17.2704 10.0406 17.2919L10.764 21.6265H13.6733Z" fill="#493B2B"/>
</g>
</svg>
