<svg width="24" height="24" viewBox="0 0 24 24" fill="none" xmlns="http://www.w3.org/2000/svg">
<g opacity="0.8">
<path fill-rule="evenodd" clip-rule="evenodd" d="M9.51436 1.91992L15.2965 4.79985V7.19945H14.5706V8.57115L17.0253 8.52315L21.5142 17.5221L23.04 18.0587V21.1199H18.818L14.8411 12.7676H14.5706V21.1199H0.959961L4.95733 11.9217V7.19945H3.9894V4.80932L9.51436 1.91992ZM6.34323 7.19945V8.58484H13.1847V7.19945H6.34323ZM13.9107 5.80074H5.3753V5.65987L9.52961 3.48728L13.9107 5.66934V5.80074ZM13.1847 9.98354H12.1508V11.3689H13.1847V9.98354ZM14.5706 11.3689H15.7128L19.6897 19.7212H21.6541V19.0525L20.5285 18.6567L16.1798 9.93866L14.5706 9.97013V11.3689ZM13.1847 12.7676H6.10302L3.08115 19.7212H13.1847V12.7676ZM6.34323 11.3689H7.86111V9.98354H6.34323V11.3689ZM9.24701 9.98354V11.3616L10.7649 11.3374V9.98354H9.24701Z" fill="#493B2B"/>
</g>
</svg>
