<svg width="24" height="24" viewBox="0 0 24 24" fill="none" xmlns="http://www.w3.org/2000/svg">
<g opacity="0.8">
<path fill-rule="evenodd" clip-rule="evenodd" d="M1.91992 1.43994L6.51546 1.86975L12.3394 2.52293L17.6521 3.16618L22.0799 3.58961L22.0799 22.5599H1.92001L1.91992 1.43994ZM3.43894 10.0405L3.43898 15.0464H5.6705V10.0405H3.43894ZM7.18952 10.0405V15.0464H8.70855V11.2332H11.4878V10.0405H7.18952ZM11.4878 8.53585H7.18952V3.45969L11.4878 3.94165V8.53585ZM13.0068 10.0405V11.2332H15.7974V15.0464H16.81V10.0405H13.0068ZM16.81 8.53585H13.0068V4.11957L16.81 4.58003V8.53585ZM18.329 10.0405V15.0464H20.5608L20.5608 10.0405H18.329ZM20.5608 8.53585H18.329V4.74252L20.5609 4.95595L20.5608 8.53585ZM20.5608 16.551H18.329V21.0553H20.5609L20.5608 16.551ZM16.81 21.0553V16.551H15.7974V21.0553H16.81ZM14.2784 21.0553V12.7378H10.2276V21.0553H14.2784ZM8.70855 21.0553V16.551H7.18952V21.0553H8.70855ZM5.6705 21.0553V16.551H3.43899L3.43902 21.0553H5.6705ZM5.6705 3.30203V8.53585H3.43885L3.43892 3.09332L5.6705 3.30203Z" fill="#493B2B"/>
</g>
</svg>
