<svg width="24" height="24" viewBox="0 0 24 24" fill="none" xmlns="http://www.w3.org/2000/svg">
<g opacity="0.8">
<path fill-rule="evenodd" clip-rule="evenodd" d="M3.22723 1.91992L20.7727 4.291V6.11943H23.04L21.2529 8.99598V22.0799H2.74702V8.99598L0.959961 6.11943H3.22723V1.91992ZM4.68585 6.11943H19.3141V5.57449L4.68585 3.59765V6.11943ZM4.20564 9.51927V20.6125H5.38815V9.51927H4.20564ZM6.84677 9.51927V20.6125H8.02927V9.51927H6.84677ZM9.48789 9.51927V20.6125H14.512V9.51927H9.48789ZM15.9706 9.51927V20.6125H17.1532V9.51927H15.9706ZM18.6118 9.51927V20.6125H19.7943V9.51927H18.6118ZM20.1194 8.05184L20.4082 7.58686H3.59168L3.88055 8.05184H20.1194ZM10.044 11.2696H14.1184V15.401H10.044V11.2696ZM11.5026 12.7371V13.9336H12.6598V12.7371H11.5026Z" fill="#493B2B"/>
</g>
</svg>
