<svg width="24" height="24" viewBox="0 0 24 24" fill="none" xmlns="http://www.w3.org/2000/svg">
<g opacity="0.8">
<path fill-rule="evenodd" clip-rule="evenodd" d="M22.0004 18.6H1.90039V17.1H3.20039V8.7C3.50039 6.3 4.50039 4.3 6.00039 3C7.60039 1.7 9.60039 1 11.9004 1C14.2004 1 16.1004 1.7 17.6004 3C19.0004 4.3 19.9004 6.2 20.4004 8.5V17.1H22.0004V18.6ZM7.10039 17.1H16.5004V10.2C16.5004 8.4 16.0004 7.1 15.2004 6.3C14.4004 5.4 13.2004 5 11.9004 5C10.6004 5 9.40039 5.5 8.50039 6.2C7.70039 7.1 7.10039 8.3 7.10039 10.1V17.1ZM7.00039 4.2C5.80039 5.2 5.00039 6.8 4.70039 8.9V17.2H5.60039V10.2C5.60039 8 6.30039 6.4 7.50039 5.3C8.60039 4.2 10.2004 3.6 11.9004 3.6C13.5004 3.6 15.1004 4.1 16.2004 5.3C17.4004 6.4 18.0004 8.1 18.0004 10.2V17.2H18.9004V8.9C18.5004 6.8 17.7004 5.2 16.6004 4.2C15.5004 3.2 13.9004 2.6 11.9004 2.6C9.90039 2.6 8.20039 3.1 7.00039 4.2Z" fill="#493B2B"/>
<path d="M22.9 19.1H1V20.6H22.9V19.1Z" fill="#493B2B"/>
<path d="M23.8 21.2H0V22.7H23.8V21.2Z" fill="#493B2B"/>
</g>
</svg>
