<svg width="203" height="32" viewBox="0 0 203 32" fill="none" xmlns="http://www.w3.org/2000/svg">
<path d="M128.748 1.87793L124.48 3.6145V6.15329L128.748 4.50513V1.87793Z" fill="white"/>
<path d="M66.1366 9.54663C65.3623 9.54663 64.6691 9.68674 64.057 9.96697C63.4523 10.2472 62.9398 10.6528 62.5195 11.1837C62.0991 11.7073 61.7784 12.3452 61.5571 13.0974C61.3359 13.8422 61.2253 14.6829 61.2253 15.6194C61.2253 16.8731 61.4023 17.9534 61.7562 18.8605C62.1102 19.7602 62.6485 20.4533 63.3712 20.9401C64.0939 21.4194 65.0083 21.6591 66.1145 21.6591C66.8003 21.6591 67.4677 21.5927 68.1166 21.4599C68.7656 21.3272 69.4367 21.1465 70.1298 20.9179V23.1745C69.4735 23.4326 68.8098 23.6206 68.1388 23.7386C67.4677 23.8566 66.6934 23.9156 65.8158 23.9156C64.164 23.9156 62.7923 23.5727 61.7009 22.8869C60.6169 22.2011 59.8057 21.235 59.2674 19.9888C58.7364 18.7425 58.4709 17.2824 58.4709 15.6084C58.4709 14.3842 58.6406 13.2633 58.9798 12.2457C59.319 11.228 59.8131 10.3504 60.462 9.613C61.111 8.86818 61.9111 8.29667 62.8624 7.89845C63.8211 7.49286 64.9162 7.29007 66.1477 7.29007C66.9589 7.29007 67.7553 7.38225 68.537 7.56661C69.326 7.74359 70.0561 7.99801 70.7272 8.32985L69.798 10.52C69.2375 10.2546 68.6513 10.026 68.0392 9.83423C67.4271 9.6425 66.7929 9.54663 66.1366 9.54663Z" fill="white"/>
<path fill-rule="evenodd" clip-rule="evenodd" d="M40.6114 8.8055C39.6527 7.95007 38.1299 7.52236 36.043 7.52236H31.3418V23.6944H33.9966V17.6326H35.7222C36.9021 17.6326 37.8939 17.4925 38.6977 17.2123C39.5089 16.9321 40.1616 16.5523 40.6556 16.073C41.1497 15.5862 41.5037 15.0295 41.7176 14.4027C41.9388 13.7685 42.0494 13.1011 42.0494 12.4005C42.0494 10.8593 41.5701 9.66093 40.6114 8.8055ZM33.9966 9.72361H35.866C37.0606 9.72361 37.9382 9.95222 38.4986 10.4094C39.0665 10.8666 39.3504 11.5635 39.3504 12.5001C39.3504 13.2006 39.1992 13.7648 38.8969 14.1925C38.5945 14.6202 38.152 14.9336 37.5695 15.1327C36.9869 15.3245 36.2789 15.4203 35.4456 15.4203H33.9966V9.72361Z" fill="white"/>
<path d="M52.7513 19.1038L57.8949 7.52236H55.1184L51.7336 15.4646C51.6672 15.6268 51.5898 15.8149 51.5013 16.0287C51.4202 16.2426 51.3391 16.4527 51.2579 16.6592C51.1842 16.8583 51.1215 17.0316 51.0699 17.1791H50.9703C50.9114 17.0095 50.8376 16.8251 50.7491 16.626C50.668 16.4196 50.5832 16.2204 50.4947 16.0287C50.4062 15.8296 50.3325 15.6674 50.2735 15.542L46.4572 7.52236H43.6144L49.5323 19.3472C49.3332 19.8339 49.1083 20.2469 48.8576 20.5861C48.6142 20.9179 48.3119 21.1687 47.9505 21.3383C47.5966 21.5079 47.1504 21.5927 46.6121 21.5927C46.2286 21.5927 45.8415 21.5595 45.4506 21.4931C45.0672 21.4194 44.7095 21.3125 44.3776 21.1723V23.5838C44.7242 23.687 45.104 23.7681 45.517 23.8271C45.93 23.8861 46.3429 23.9156 46.7559 23.9156C47.8915 23.9156 48.817 23.7313 49.5323 23.3625C50.2477 22.9864 50.8487 22.4407 51.3354 21.7254C51.8295 21.0101 52.3014 20.1362 52.7513 19.1038Z" fill="white"/>
<path d="M77.6415 9.96697C78.2536 9.68674 78.9468 9.54663 79.7211 9.54663C80.3774 9.54663 81.0116 9.6425 81.6237 9.83423C82.2357 10.026 82.822 10.2546 83.3825 10.52L84.3116 8.32985C83.6406 7.99801 82.9105 7.74359 82.1214 7.56661C81.3398 7.38225 80.5433 7.29007 79.7321 7.29007C78.5006 7.29007 77.4055 7.49286 76.4469 7.89845C75.4956 8.29667 74.6954 8.86818 74.0465 9.613C73.3975 10.3504 72.9035 11.228 72.5642 12.2457C72.225 13.2633 72.0554 14.3842 72.0554 15.6084C72.0554 17.2824 72.3209 18.7425 72.8518 19.9888C73.3902 21.235 74.2014 22.2011 75.2854 22.8869C76.3768 23.5727 77.7484 23.9156 79.4003 23.9156C80.2778 23.9156 81.0522 23.8566 81.7232 23.7386C82.3943 23.6206 83.058 23.4326 83.7143 23.1745V20.9179C83.0211 21.1465 82.3501 21.3272 81.7011 21.4599C81.0522 21.5927 80.3848 21.6591 79.699 21.6591C78.5928 21.6591 77.6784 21.4194 76.9557 20.9401C76.233 20.4533 75.6947 19.7602 75.3407 18.8605C74.9867 17.9534 74.8097 16.8731 74.8097 15.6194C74.8097 14.6829 74.9204 13.8422 75.1416 13.0974C75.3628 12.3452 75.6836 11.7073 76.104 11.1837C76.5243 10.6528 77.0368 10.2472 77.6415 9.96697Z" fill="white"/>
<path d="M99.1351 23.6944H96.0489L89.4009 15.4867V23.6944H86.7461V7.52236H89.4009V15.354L95.9272 7.52236H98.8253L92.299 15.3318L99.1351 23.6944Z" fill="white"/>
<path d="M103.941 7.52236H101.519V23.6944H104.627L112.879 10.686H112.978C112.971 10.8261 112.956 11.0621 112.934 11.3939C112.912 11.7258 112.89 12.1092 112.868 12.5443C112.846 12.9794 112.827 13.4292 112.812 13.8938C112.798 14.3584 112.79 14.7898 112.79 15.188V23.6944H115.191V7.52236H112.105L103.875 20.4423H103.797C103.812 20.2948 103.827 20.0588 103.842 19.7343C103.856 19.4025 103.871 19.0264 103.886 18.6061C103.908 18.1857 103.923 17.7543 103.93 17.3119C103.937 16.8694 103.941 16.4638 103.941 16.0951V7.52236Z" fill="white"/>
<path d="M119.687 7.52236H122.11V16.0951C122.11 16.4638 122.106 16.8694 122.098 17.3119C122.091 17.7543 122.076 18.1857 122.054 18.6061C122.039 19.0264 122.025 19.4025 122.01 19.7343C121.995 20.0588 121.98 20.2948 121.966 20.4423H122.043L130.273 7.52236H133.359V23.6944H130.959V15.188C130.959 14.7898 130.966 14.3584 130.981 13.8938C130.996 13.4292 131.014 12.9794 131.036 12.5443C131.058 12.1092 131.08 11.7258 131.103 11.3939C131.125 11.0621 131.139 10.8261 131.147 10.686H131.047L122.795 23.6944H119.687V7.52236Z" fill="white"/>
<path d="M143.956 7.52236V23.6944H146.61V9.77892H153.745V23.6944H156.378V7.52236H143.956Z" fill="white"/>
<path fill-rule="evenodd" clip-rule="evenodd" d="M170.907 23.6944L169.325 19.2034H163.142L161.56 23.6944H158.761L164.779 7.45599H167.721L173.728 23.6944H170.907ZM168.639 16.9247L167.102 12.5001C167.043 12.3083 166.958 12.0392 166.847 11.6926C166.737 11.3386 166.626 10.9809 166.516 10.6196C166.405 10.2509 166.313 9.94116 166.239 9.69043C166.165 9.99278 166.073 10.332 165.962 10.7081C165.859 11.0768 165.756 11.4234 165.653 11.7479C165.557 12.0724 165.483 12.3231 165.432 12.5001L163.883 16.9247H168.639Z" fill="white"/>
<path fill-rule="evenodd" clip-rule="evenodd" d="M185.359 8.8055C184.4 7.95007 182.877 7.52236 180.79 7.52236H176.089V23.6944H178.744V17.6326H180.47C181.649 17.6326 182.641 17.4925 183.445 17.2123C184.256 16.9321 184.909 16.5523 185.403 16.073C185.897 15.5862 186.251 15.0295 186.465 14.4027C186.686 13.7685 186.797 13.1011 186.797 12.4005C186.797 10.8593 186.317 9.66093 185.359 8.8055ZM178.744 9.72361H180.613C181.808 9.72361 182.686 9.95222 183.246 10.4094C183.814 10.8666 184.098 11.5635 184.098 12.5001C184.098 13.2006 183.947 13.7648 183.644 14.1925C183.342 14.6202 182.899 14.9336 182.317 15.1327C181.734 15.3245 181.026 15.4203 180.193 15.4203H178.744V9.72361Z" fill="white"/>
<path d="M201.967 23.6944H198.881L192.233 15.4867V23.6944H189.578V7.52236H192.233V15.354L198.759 7.52236H201.657L195.131 15.3318L201.967 23.6944Z" fill="white"/>
<path fill-rule="evenodd" clip-rule="evenodd" d="M4.82724 2.04297L17.0915 7.5637V23.7083L9.66306 28.8723V13.7869L7.46663 14.7075V26.7746L4.82724 25.2041V15.8222L2.63939 16.7918V24.0349L0 22.3424V15.0419L4.82724 12.954V2.04297ZM7.46663 6.088V11.8457L12.3025 9.81875V23.8024L14.4521 22.3342V9.28597L7.46663 6.088Z" fill="white"/>
</svg>
