<svg width="64" height="64" viewBox="0 0 64 64" fill="none" xmlns="http://www.w3.org/2000/svg">
<path fill-rule="evenodd" clip-rule="evenodd" d="M37.473 31.5829L36.9449 33.0165L44.6539 30.6999L62.7476 12.6061L57.7273 7.58582L39.6564 25.6568L38.227 29.5364L29.916 21.5868L16.6928 33.9285L19.487 36.7226V45.944H28.945V38.8785H30.8702V45.944H39.9357V35.8811L29.9221 26.303L20.5171 34.9243L19.5709 33.9781L29.8992 24.3383L37.473 31.5829ZM56.8661 15.6592L45.1787 27.3466C45.02 26.79 44.7365 26.2365 44.279 25.779C43.9201 25.4201 43.5209 25.1802 43.1088 25.0327L54.6742 13.4674L56.8661 15.6592ZM40.2068 29.9479L41.3133 26.9447C41.8654 26.7532 42.4851 26.8136 42.8648 27.1932C43.1108 27.4392 43.2735 27.8101 43.3278 28.2574C43.36 28.5228 43.3499 28.7843 43.3119 29.0148L40.2068 29.9479ZM58.2803 14.245L56.0884 12.0532L57.7273 10.4142L59.9192 12.6061L58.2803 14.245ZM21.487 36.7483V43.944H26.945V36.8785H32.8702V43.944H37.9357V36.7357L29.893 29.0428L21.487 36.7483Z" fill="#B57561"/>
<path fill-rule="evenodd" clip-rule="evenodd" d="M3 48.6729V14.7942C3 12.0328 5.23858 9.79423 8 9.79423H13.243V16.4672H46.0002V18.4672H13.243V46.3364H7.33646C6.04607 46.3364 5 47.3825 5 48.6729C5 49.9633 6.04607 51.0094 7.33647 51.0094H46.1778V30.4205H48.1778V53.0094H7.33647C4.9415 53.0094 3 51.0679 3 48.6729ZM8 11.7942C6.34315 11.7942 5 13.1374 5 14.7942V45.0191C5.67432 44.587 6.47613 44.3364 7.33646 44.3364H11.243V11.7942H8Z" fill="#B57561"/>
</svg>
