<svg width="64" height="64" viewBox="0 0 64 64" fill="none" xmlns="http://www.w3.org/2000/svg">
<path fill-rule="evenodd" clip-rule="evenodd" d="M9.93252 6.75964L6.76074 9.93142L11.6025 16.2629L14.5584 17.9051L27.2668 30.6135L9.15024 48.73C7.42679 50.4534 7.42679 53.2477 9.15024 54.9711C10.8737 56.6946 13.6679 56.6946 15.3914 54.9711L45.0166 25.3459C48.0684 26.1431 51.4534 25.347 53.8474 22.953C56.254 20.5464 57.0458 17.1379 56.2277 14.0743L55.7804 12.3993L50.5591 17.6206L46.9106 16.8909L46.181 13.2425L51.4022 8.02117L49.7272 7.57385C46.6637 6.75573 43.2551 7.54754 40.8485 9.95414C38.3243 12.4784 37.5764 16.1039 38.6 19.2802L30.6143 27.266L17.9055 14.5572L16.2609 11.6041L9.93252 6.75964ZM29.2 28.6802L16.294 15.7741L14.7156 12.9399L10.1079 9.41266L9.41312 10.1075L12.9381 14.717L15.7745 16.2928L28.681 29.1993L29.2 28.6802ZM47.3331 9.26187C45.4965 9.26557 43.6627 9.9684 42.2627 11.3684C40.1571 13.474 39.6287 16.5622 40.6834 19.1617L40.9327 19.776L10.5645 50.1442C9.62206 51.0866 9.62205 52.6145 10.5645 53.5569C11.5069 54.4993 13.0348 54.4993 13.9772 53.5569L44.4618 23.0723L45.0493 23.2698C47.5587 24.1136 50.4372 23.5347 52.4332 21.5388C53.8331 20.1388 54.536 18.305 54.5397 16.4684L51.2164 19.7917L45.211 18.5906L44.0099 12.5851L47.3331 9.26187Z" fill="#B57561"/>
<path d="M47.6098 54.8114L32.8059 40.0075L34.2201 38.5933L49.024 53.3971C50.2323 54.6054 52.1913 54.6054 53.3996 53.3971C54.6079 52.1889 54.6079 50.2298 53.3996 49.0215L38.5957 34.2177L40.0099 32.8035L54.8138 47.6073C56.8031 49.5967 56.8031 52.822 54.8138 54.8114C52.8245 56.8007 49.5991 56.8007 47.6098 54.8114Z" fill="#B57561"/>
<path d="M13.1825 50.9049L13.1723 50.9457V51.0688C13.1723 51.1397 13.1436 51.2107 13.1015 51.2567C13.0825 51.2774 13.0615 51.2925 13.0376 51.3032C13.0146 51.3134 12.9767 51.3249 12.9162 51.3249C12.8453 51.3249 12.7743 51.2962 12.7284 51.2541C12.7077 51.2351 12.6925 51.2141 12.6819 51.1901C12.6717 51.1672 12.6602 51.1293 12.6602 51.0688C12.6602 50.9979 12.6889 50.9269 12.731 50.881C12.7499 50.8603 12.771 50.8451 12.7949 50.8345C12.8179 50.8243 12.8557 50.8127 12.9162 50.8127C13.0395 50.8127 13.1339 50.8609 13.1825 50.9049Z" fill="#B57561" stroke="#B57561" stroke-width="2"/>
</svg>
