<svg width="64" height="64" viewBox="0 0 64 64" fill="none" xmlns="http://www.w3.org/2000/svg">
<path fill-rule="evenodd" clip-rule="evenodd" d="M30.1267 5.00598C28.5522 5.00598 27.2338 6.10217 26.893 7.57298C25.7278 8.05986 24.0687 9.25751 22.7645 11.54C21.5238 13.7112 21.1907 16.0111 21.1837 17.5301H19.458V19.5301H22.1689V23.1687C22.1689 26.2818 23.6185 29.0563 25.8795 30.8541V33.6011C25.6159 33.7006 25.2853 33.8279 24.8828 33.9857C23.8188 34.4028 22.2306 35.042 20.0019 35.9679L19.5371 36.1613C14.9555 38.0702 12.4243 40.4976 11.6679 41.6321L11.5 41.884V54.6612L11.7929 54.9541C12.2157 55.3769 12.9312 55.7927 13.8824 56.1808C14.86 56.5796 16.1706 56.9824 17.8605 57.3377C20.8946 57.9756 25.1896 58.468 31.05 58.493C31.2049 58.4937 31.3609 58.494 31.5181 58.494C32.16 58.494 32.7842 58.4884 33.3911 58.4777C39.3076 58.3735 43.5852 57.7804 46.5245 57.0748C47.8925 56.7464 48.9802 56.3913 49.8134 56.0447C50.6292 55.7052 51.2567 55.3511 51.6585 54.9996L52 54.7008V41.9L51.848 41.6568C51.0171 40.3274 48.5794 37.3699 45.321 36.148C44.9085 35.9933 44.4858 35.837 44.0599 35.6813C42.3504 35.0562 40.5855 34.4387 39.2238 33.9709C38.801 33.8257 38.4166 33.6947 38.0843 33.5823V30.8545C40.3456 29.0568 41.7955 26.2821 41.7955 23.1687V19.5301H44.0423V17.5301H42.7805C42.7735 16.0111 42.4404 13.7112 41.1997 11.54C39.8955 9.25751 38.2364 8.05986 37.0712 7.57298C36.7304 6.10217 35.412 5.00598 33.8375 5.00598H30.1267ZM40.073 13.8193C39.9076 13.3907 39.7065 12.958 39.4633 12.5322C38.5677 10.965 37.5305 10.1031 36.7972 9.6708L35.7231 13.2512L33.8074 12.6765L35.1508 8.19852C35.087 7.52936 34.5234 7.00598 33.8375 7.00598H30.1267C29.4408 7.00598 28.8772 7.52936 28.8134 8.19852L30.1568 12.6765L28.2411 13.2512L27.167 9.6708C26.4337 10.1031 25.3965 10.965 24.5009 12.5322C24.2577 12.958 24.0566 13.3907 23.8912 13.8193H40.073ZM24.1689 17.5301V15.8193H39.7955V17.5301H24.1689ZM24.1689 19.5301H39.7955V23.1687C39.7955 27.4839 36.2973 30.982 31.9822 30.982C31.722 30.982 31.4647 30.9693 31.211 30.9444C31.1098 30.9336 31.0077 30.9215 30.9048 30.9083C27.0995 30.3835 24.1689 27.1183 24.1689 23.1687V19.5301ZM31.0465 32.938C30.8994 32.924 30.7533 32.9069 30.6081 32.8865C29.9059 32.7948 29.2137 32.6612 28.6214 32.5309C28.3566 32.4727 28.107 32.414 27.8795 32.3581V35.022L27.1957 35.2499C27.1061 35.2798 26.9367 35.3405 26.6761 35.4383C27.2596 35.7856 29.151 36.5482 32.4458 36.5482C34.2199 36.5482 35.4902 36.3262 36.3399 36.0692C36.7652 35.9406 37.0784 35.8052 37.2941 35.6891C37.3926 35.6362 37.4669 35.5892 37.5202 35.5515L37.5391 35.5093C37.2388 35.4075 36.9786 35.3201 36.7681 35.2499L36.0843 35.022V32.3772C35.9609 32.4094 35.8314 32.4423 35.6972 32.4753C34.7567 32.7071 33.5125 32.9655 32.4786 32.9995C32.026 33.0144 31.5383 32.9887 31.0465 32.938ZM36.3671 38.1337C35.3624 38.3785 34.0681 38.5482 32.4458 38.5482C30.5376 38.5482 28.9833 38.3126 27.7981 37.997L32.0542 47.0662V56.4927C32.1612 56.4921 32.2676 56.4914 32.3735 56.4906V47.076L36.3671 38.1337ZM34.3735 56.4548C39.1521 56.3203 42.7259 55.855 45.2911 55.3041V52.9277H34.3735V56.4548ZM34.3735 50.9277H45.0389L42.8239 37.3598C41.6498 36.9344 40.4713 36.5192 39.4385 36.1609L34.3735 47.5023V50.9277ZM44.9823 38.1677L47.2911 52.3105V54.804C47.9967 54.5984 48.5779 54.3925 49.0451 54.1981C49.4684 54.022 49.7803 53.8626 50 53.7316V42.4844C49.2056 41.3171 47.3245 39.1832 44.9823 38.1677ZM30.0542 56.4839V52.9277H19.0663V55.538C21.7104 56.0323 25.3071 56.4177 30.0542 56.4839ZM17.0663 55.1021V51.8511L19.12 38.536C15.928 40.055 14.139 41.7249 13.5 42.5159V53.7627C13.7346 53.9137 14.1009 54.1099 14.6379 54.3289C15.253 54.5799 16.0545 54.8458 17.0663 55.1021ZM21.2881 37.5996L19.2323 50.9277H30.0542V47.5121L24.7419 36.1924C23.8553 36.5462 22.7161 37.0086 21.2881 37.5996Z" fill="#B57561"/>
</svg>
