<svg width="64" height="64" viewBox="0 0 64 64" fill="none" xmlns="http://www.w3.org/2000/svg">
<path fill-rule="evenodd" clip-rule="evenodd" d="M22.4616 29.573C23.5094 28.5253 24.9306 27.9366 26.4125 27.9366C27.8938 27.9383 29.3139 28.5275 30.3615 29.5748C31.4088 30.6224 31.9981 32.0426 31.9998 33.5239C31.9998 35.0058 31.4112 36.427 30.3634 37.4747C29.3156 38.5224 27.8944 39.1111 26.4125 39.1111C24.9306 39.1111 23.5093 38.5225 22.4616 37.4747C21.4139 36.427 20.8252 35.0058 20.8252 33.5239C20.8252 32.042 21.4138 30.6207 22.4616 29.573ZM23.856 36.0802C24.5341 36.7582 25.4537 37.1391 26.4125 37.1391C27.3707 37.1372 28.2893 36.7559 28.9669 36.0781C29.6447 35.4005 30.026 34.482 30.0279 33.5237C30.0279 32.5649 29.647 31.6453 28.969 30.9673C28.2909 30.2893 27.3713 29.9084 26.4125 29.9084C25.4537 29.9084 24.5341 30.2893 23.856 30.9673C23.178 31.6453 22.7971 32.5649 22.7971 33.5237C22.7971 34.4826 23.178 35.4022 23.856 36.0802Z" fill="#B57561"/>
<path fill-rule="evenodd" clip-rule="evenodd" d="M37.1968 30.8279H35.2977C35.1179 30.2477 34.8832 29.686 34.5968 29.1504L35.9448 27.8323C36.1133 27.664 36.208 27.4356 36.2082 27.1973C36.2067 26.9594 36.1121 26.7313 35.9448 26.5623L33.4045 23.9921C33.2324 23.8307 33.0053 23.741 32.7695 23.741C32.5336 23.741 32.3065 23.8307 32.1344 23.9921L30.7864 25.3401C30.2508 25.0537 29.6891 24.819 29.109 24.6392V22.74C29.109 22.5018 29.0144 22.2731 28.8457 22.1046C28.6772 21.9361 28.4487 21.8413 28.2103 21.8413H24.6158C24.3773 21.8413 24.1488 21.9361 23.9803 22.1046C23.8117 22.2731 23.7171 22.5018 23.7171 22.74V24.6392C23.1369 24.819 22.5752 25.0537 22.0396 25.3401L20.7215 23.9921C20.5538 23.8225 20.3251 23.7268 20.0865 23.7268C19.8478 23.7268 19.6191 23.8225 19.4514 23.9921L16.8813 26.5324C16.7116 26.7001 16.6159 26.9288 16.6159 27.1674C16.6159 27.406 16.7116 27.6347 16.8813 27.8025L18.2292 29.1504C17.9428 29.686 17.7081 30.2477 17.5283 30.8279H15.6292C15.3909 30.8279 15.1622 30.9225 14.9937 31.0912C14.8253 31.2597 14.7305 31.4882 14.7305 31.7266V35.3211C14.7305 35.5595 14.8253 35.788 14.9937 35.9565C15.1622 36.1252 15.3909 36.2198 15.6292 36.2198H17.5283C17.7081 36.8 17.9428 37.3617 18.2292 37.8973L16.8813 39.2452C16.7116 39.413 16.6159 39.6417 16.6159 39.8803C16.6159 40.1189 16.7116 40.3476 16.8813 40.5153L19.4215 43.0556C19.5893 43.2252 19.8179 43.3209 20.0566 43.3209C20.2952 43.3209 20.5239 43.2252 20.6916 43.0556L22.0396 41.7076C22.5752 41.994 23.1369 42.2287 23.7171 42.4085V44.3077C23.7171 44.5459 23.8116 44.7746 23.9803 44.9431C24.1488 45.1116 24.3773 45.2064 24.6158 45.2064H28.2103C28.4487 45.2064 28.6772 45.1116 28.8457 44.9431C29.0144 44.7746 29.109 44.5459 29.109 44.3077V42.4085C29.6891 42.2287 30.2508 41.994 30.7864 41.7076L32.1344 43.0556C32.3027 43.2241 32.5312 43.3189 32.7695 43.3191C33.0075 43.3176 33.2355 43.223 33.4045 43.0556L35.9448 40.5153C36.1121 40.3463 36.2067 40.1183 36.2082 39.8803C36.208 39.642 36.1133 39.4135 35.9448 39.2452L34.5968 37.8973C34.8832 37.3617 35.1179 36.8 35.2977 36.2198H37.1968C37.4351 36.2198 37.6638 36.1252 37.8323 35.9565C38.0008 35.788 38.0955 35.5595 38.0955 35.3211V31.7266C38.0955 31.4882 38.0008 31.2597 37.8323 31.0912C37.6638 30.9225 37.4351 30.8279 37.1968 30.8279ZM36.2981 34.4226H34.6028C34.398 34.4222 34.1992 34.4922 34.0401 34.621C33.8808 34.7496 33.7706 34.9292 33.7279 35.1295C33.5322 35.9923 33.1854 36.8137 32.7036 37.5557C32.5929 37.7282 32.5443 37.9333 32.5662 38.137C32.588 38.3408 32.6786 38.531 32.8234 38.6761L34.0217 39.8744L32.7516 41.1446L31.5533 39.9463C31.4081 39.8015 31.218 39.7106 31.0143 39.6888C30.8105 39.667 30.6053 39.7155 30.4331 39.8263C29.691 40.3045 28.8692 40.6455 28.0066 40.8327C27.808 40.879 27.6311 40.9915 27.5049 41.1515C27.3785 41.3115 27.3104 41.5097 27.3117 41.7136V43.4089H25.5143V41.7136C25.515 41.5081 25.4451 41.3085 25.3165 41.1483C25.1878 40.9881 25.0082 40.8768 24.8074 40.8328C23.944 40.6417 23.1222 40.2966 22.3811 39.8145C22.2087 39.7037 22.0035 39.6552 21.7999 39.677C21.596 39.6988 21.4059 39.7894 21.2607 39.9343L20.0624 41.1326L18.7865 39.8803L19.9848 38.682C20.1294 38.5368 20.2202 38.3469 20.242 38.143C20.2638 37.9394 20.2153 37.7342 20.1046 37.5618C19.6263 36.8199 19.2856 35.9979 19.0981 35.1355C19.0556 34.9346 18.9456 34.7543 18.7865 34.6246C18.6274 34.4948 18.4286 34.4235 18.2233 34.4226H16.5279V32.6251H18.2233C18.4288 32.6259 18.6283 32.5559 18.7886 32.4273C18.9488 32.2987 19.0601 32.1191 19.1041 31.9183C19.2952 31.0549 19.6403 30.2331 20.1224 29.492C20.2332 29.3195 20.2817 29.1144 20.2599 28.9107C20.2381 28.7069 20.1474 28.5167 20.0026 28.3716L18.8043 27.1733L20.0745 25.9031L21.2728 27.1014C21.4179 27.2462 21.6081 27.3371 21.8117 27.3589C22.0156 27.3807 22.2207 27.3322 22.393 27.2214C23.135 26.7432 23.9568 26.4022 24.8194 26.215C25.018 26.1687 25.195 26.0562 25.3212 25.8962C25.4475 25.7362 25.5156 25.538 25.5143 25.3341V23.6388H27.3116L27.3117 25.3341C27.311 25.5396 27.3809 25.7392 27.5096 25.8994C27.6382 26.0596 27.8178 26.1709 28.0186 26.2149C28.882 26.406 29.7038 26.7511 30.4449 27.2332C30.6173 27.344 30.8225 27.3925 31.0262 27.3707C31.23 27.3489 31.4201 27.2583 31.5653 27.1135L32.7636 25.9151L34.0337 27.1853L32.8354 28.3836C32.6906 28.5288 32.5998 28.7189 32.578 28.9225C32.5562 29.1264 32.6047 29.3316 32.7155 29.5038C33.1931 30.2468 33.536 31.0682 33.7279 31.9303C33.7731 32.1283 33.8842 32.3051 34.0431 32.4314C34.2022 32.5578 34.3997 32.6261 34.6028 32.6251H36.2981L36.2981 34.4226Z" fill="#B57561"/>
<path fill-rule="evenodd" clip-rule="evenodd" d="M15.0115 6.79871C15.1995 6.60762 15.4563 6.5 15.7244 6.5H44.2707C44.823 6.5 45.2707 6.94772 45.2707 7.5V55.5C45.2707 56.0523 44.823 56.5 44.2707 56.5H9.5C8.94772 56.5 8.5 56.0523 8.5 55.5V13.8273C8.5 13.5649 8.60312 13.313 8.78712 13.126L15.0115 6.79871ZM14.7244 9.94248L11.8865 12.8273H14.7244V9.94248ZM10.5 14.8273H15.7244C16.2767 14.8273 16.7244 14.3796 16.7244 13.8273V8.5H43.2707V54.5H10.5V14.8273Z" fill="#B57561"/>
<path fill-rule="evenodd" clip-rule="evenodd" d="M51.1577 11.7365C51.5181 11.7433 51.847 11.9434 52.0185 12.2605L54.3795 16.6241C54.4586 16.7703 54.5 16.9338 54.5 17.1V55.5C54.5 56.0523 54.0523 56.5 53.5 56.5H48.5634C48.0111 56.5 47.5634 56.0523 47.5634 55.5V17.1C47.5634 16.9212 47.6114 16.7457 47.7022 16.5917L50.2778 12.2281C50.4611 11.9176 50.7972 11.7298 51.1577 11.7365ZM49.5634 17.3731V54.5H52.5V17.3532L51.1012 14.7678L49.5634 17.3731Z" fill="#B57561"/>
</svg>
