<svg width="64" height="64" viewBox="0 0 64 64" fill="none" xmlns="http://www.w3.org/2000/svg">
<path fill-rule="evenodd" clip-rule="evenodd" d="M34.2394 10.6522C35.3944 8.46974 37.6396 7 40.2067 7C43.9373 7 47 10.1119 47 14C47 17.8881 43.9373 21 40.2067 21C37.5708 21 35.2746 19.4505 34.1491 17.1713L32.4426 16.6547L29.77 18.9232L27.5964 16.8937L25.4228 18.9232L22.9758 16.8463L20.5396 18.9141L16 14.8325L19.7417 10.6522H34.2394ZM35.402 12.3705C36.0663 10.3223 37.9581 8.82609 40.2067 8.82609C43.0228 8.82609 45.2673 11.1646 45.2673 14C45.2673 16.8354 43.0228 19.1739 40.2067 19.1739C37.9907 19.1739 36.1208 17.7206 35.4315 15.7177L31.9913 14.6931L29.8233 16.5333L27.5964 14.4541L25.3695 16.5333L22.9758 14.5016L20.5715 16.5424L18.5103 14.6892L20.4892 12.4783L35.402 12.3705Z" fill="#B57561"/>
<path fill-rule="evenodd" clip-rule="evenodd" d="M13 19.8154V34.2553H16V56H14V58H50V56H48V34.2553H51V26.2835L13 19.8154ZM18 56V34.2553H46V56H43.5V40.9149H41.5V47.9574H35.5V56H33V45.7447H38V43.7447H26.75V45.7447H31V56H28.5V47.9574H22.5V40.9149H20.5V56H18ZM33.0796 32.2553H24.7686L32.3234 25.1333L38.949 26.261L33.0796 32.2553ZM29.8537 24.7129L21.853 32.2553H15V29.8179L21.1153 23.2255L29.8537 24.7129ZM18.7593 22.8245L15 26.8771V22.1846L18.7593 22.8245ZM35.8787 32.2553L41.3483 26.6694L48.235 27.8416L44.9937 32.2553H35.8787ZM47.4751 32.2553L49 30.1788V32.2553H47.4751ZM41.5 49.9574V56H37.5V49.9574H41.5ZM26.5 49.9574V56H22.5V49.9574H26.5Z" fill="#B57561"/>
</svg>
