<svg width="64" height="64" viewBox="0 0 64 64" fill="none" xmlns="http://www.w3.org/2000/svg">
<path fill-rule="evenodd" clip-rule="evenodd" d="M8.8752 29.225H6.1002C4.57019 29.225 3.3252 27.98 3.3252 26.45C3.3252 24.92 4.57019 23.675 6.1002 23.675H8.8752V11.65C8.8752 11.1396 9.2898 10.725 9.8002 10.725H37.5502C38.0606 10.725 38.4752 11.1396 38.4752 11.65V23.675H43.1002C43.6106 23.675 44.0252 24.0896 44.0252 24.6V25.525H45.8752V24.6C45.8752 24.0896 46.2898 23.675 46.8002 23.675H57.9002C59.4302 23.675 60.6752 24.92 60.6752 26.45C60.6752 27.98 59.4302 29.225 57.9002 29.225H46.8002C46.2898 29.225 45.8752 28.8104 45.8752 28.3V27.375H44.0252V28.3C44.0252 28.8104 43.6106 29.225 43.1002 29.225H38.4752V30.15C38.4752 30.6604 38.0606 31.075 37.5502 31.075H33.8502C33.3398 31.075 32.9252 30.6604 32.9252 30.15V29.225H14.4252V30.15C14.4252 30.6604 14.0106 31.075 13.5002 31.075H9.8002C9.2898 31.075 8.8752 30.6604 8.8752 30.15V29.225ZM57.9002 25.525H47.7252V27.375H57.9002C58.4098 27.375 58.8252 26.9596 58.8252 26.45C58.8252 25.9404 58.4098 25.525 57.9002 25.525ZM38.4752 27.375H42.1752V25.525H38.4752V27.375ZM14.4252 23.675H32.9252V16.275H14.4252V23.675ZM32.9252 25.525H14.4252V27.375H32.9252V25.525ZM36.6252 12.575H10.7252V29.225H12.5752V15.35C12.5752 14.8396 12.9898 14.425 13.5002 14.425H33.8502C34.3606 14.425 34.7752 14.8396 34.7752 15.35V29.225H36.6252V12.575ZM8.8752 25.525H6.1002C5.59062 25.525 5.1752 25.9404 5.1752 26.45C5.1752 26.9596 5.59062 27.375 6.1002 27.375H8.8752V25.525Z" fill="#B57561"/>
<path fill-rule="evenodd" clip-rule="evenodd" d="M9.80039 38.475C8.27039 38.475 7.02539 39.72 7.02539 41.25C7.02539 42.78 8.27039 44.025 9.80039 44.025C11.3304 44.025 12.5754 42.78 12.5754 41.25C12.5754 39.72 11.3304 38.475 9.80039 38.475ZM9.80039 42.175C9.29082 42.175 8.87539 41.7596 8.87539 41.25C8.87539 40.7404 9.29082 40.325 9.80039 40.325C10.31 40.325 10.7254 40.7404 10.7254 41.25C10.7254 41.7596 10.31 42.175 9.80039 42.175Z" fill="#B57561"/>
<path fill-rule="evenodd" clip-rule="evenodd" d="M59.7502 32.9249H46.8002C46.2898 32.9249 45.8752 33.3395 45.8752 33.8499V34.7749H9.8002C6.22991 34.7749 3.3252 37.6796 3.3252 41.2499V50.4999C3.3252 51.0103 3.7398 51.4249 4.2502 51.4249H7.0252C7.27048 51.4249 7.50628 51.3279 7.6793 51.154L8.87514 49.9578L10.071 51.1536C10.4327 51.5154 11.0175 51.5154 11.3788 51.1536L12.575 49.9578L13.7709 51.1536C14.1326 51.5154 14.7173 51.5154 15.0787 51.1536L16.2749 49.9578L17.4708 51.1536C17.8325 51.5154 18.4172 51.5154 18.7786 51.1536L19.9748 49.9578L21.1707 51.1536C21.5324 51.5154 22.1171 51.5154 22.4785 51.1536L23.6747 49.9578L24.8706 51.1536C25.2323 51.5154 25.817 51.5154 26.1784 51.1536L27.3746 49.9578L28.5705 51.1536C28.9322 51.5154 29.5169 51.5154 29.8782 51.1536L31.0745 49.9578L32.2704 51.1536C32.6321 51.5154 33.2168 51.5154 33.5781 51.1536L34.7744 49.9578L35.9702 51.1536C36.332 51.5154 36.9167 51.5154 37.278 51.1536L38.4743 49.9578L39.6701 51.1536C40.0319 51.5154 40.6166 51.5154 40.9779 51.1536L42.1742 49.9578L43.37 51.1536C43.5431 51.3279 43.7789 51.4249 44.0241 51.4249H45.8741V52.3499C45.8741 52.8603 46.2887 53.2749 46.7991 53.2749H59.7491C60.2595 53.2749 60.6741 52.8603 60.6741 52.3499V48.6499C60.6741 48.1395 60.2595 47.7249 59.7491 47.7249H56.9741V38.4749H59.7491C60.2595 38.4749 60.6741 38.0603 60.6741 37.5499V33.8499C60.6741 33.3395 60.2595 32.9249 59.7491 32.9249L59.7502 32.9249ZM45.8752 48.6499V49.5749H44.408L42.8288 47.9958C42.4671 47.634 41.8824 47.634 41.521 47.9958L40.3252 49.192L39.1294 47.9962C38.7676 47.6345 38.1829 47.6345 37.8216 47.9962L36.6253 49.192L35.4295 47.9962C35.0677 47.6345 34.483 47.6345 34.1217 47.9962L32.9254 49.192L31.7296 47.9962C31.3678 47.6345 30.7831 47.6345 30.4218 47.9962L29.2255 49.192L28.0297 47.9962C27.6679 47.6345 27.0832 47.6345 26.7219 47.9962L25.5256 49.192L24.3298 47.9962C23.968 47.6345 23.3833 47.6345 23.022 47.9962L21.8257 49.192L20.6299 47.9962C20.2681 47.6345 19.6834 47.6345 19.3221 47.9962L18.1258 49.192L16.93 47.9962C16.5682 47.6345 15.9835 47.6345 15.6222 47.9962L14.4259 49.192L13.2301 47.9962C12.8684 47.6345 12.2836 47.6345 11.9223 47.9962L10.726 49.192L9.5302 47.9962C9.16846 47.6345 8.58373 47.6345 8.22241 47.9962L6.64325 49.5749H5.17604V41.2499C5.17604 38.6996 7.25068 36.6249 9.80104 36.6249H42.176V38.4749H14.426V40.3249H42.176V45.8749H44.026V36.6249H45.876V37.5499C45.876 38.0603 46.2906 38.4749 46.801 38.4749H49.576V47.7249H46.801C46.2906 47.7249 45.8752 48.1395 45.8752 48.6499ZM58.8252 36.6249H56.0502C55.5398 36.6249 55.1252 37.0395 55.1252 37.5499V48.6499C55.1252 49.1603 55.5398 49.5749 56.0502 49.5749H58.8252V51.4249H47.7252V49.5749H50.5002C51.0106 49.5749 51.4252 49.1603 51.4252 48.6499V37.5499C51.4252 37.0395 51.0106 36.6249 50.5002 36.6249H47.7252V34.7749H58.8252V36.6249Z" fill="#B57561"/>
</svg>
