<svg width="72" height="72" viewBox="0 0 72 72" fill="none" xmlns="http://www.w3.org/2000/svg">
<path d="M31.0528 37.5812H7.80957V35.5812H31.0528V37.5812Z" fill="#B57561"/>
<path d="M7.80957 42.8108H31.0528V40.8108H7.80957V42.8108Z" fill="#B57561"/>
<path d="M31.0528 47.4595H7.80957V45.4595H31.0528V47.4595Z" fill="#B57561"/>
<path d="M7.80957 52.108H31.0528V50.108H7.80957V52.108Z" fill="#B57561"/>
<path fill-rule="evenodd" clip-rule="evenodd" d="M34.9554 9.43237H9.13574V17.4053H11.1357V11.4324H33.5411V21.8918H44.0006V52.4324H37.8649V28.6128L26.8196 17.5675H1V62.5675H37.8649V54.4324H46.0006V20.4776L34.9554 9.43237ZM42.5864 19.8918L35.5411 12.8466V19.8918H42.5864ZM3 60.5675V19.5675H25.4054V30.027H35.8649V60.5675H3ZM34.4507 28.027L27.4054 20.9817V28.027H34.4507Z" fill="#B57561"/>
</svg>
