<svg width="72" height="72" viewBox="0 0 72 72" fill="none" xmlns="http://www.w3.org/2000/svg">
<path d="M8.06836 35.6635H23.8461V33.6635H8.06836V35.6635Z" fill="#B57561"/>
<path d="M33.6539 41.7318H8.06836V39.7318H33.6539V41.7318Z" fill="#B57561"/>
<path d="M8.06836 47.8002H33.6539V45.8002H8.06836V47.8002Z" fill="#B57561"/>
<path d="M33.6539 53.8685H8.06836V51.8685H33.6539V53.8685Z" fill="#B57561"/>
<path fill-rule="evenodd" clip-rule="evenodd" d="M14.1371 17.8856H8.88926V25.7745H7.46191V27.7745H8.88926V30.1121H10.8893V27.7745H12.9235V25.7745H10.8893V24.7403H14.1371C16.03 24.7403 17.5645 23.2058 17.5645 21.313C17.5645 19.4201 16.03 17.8856 14.1371 17.8856ZM14.1371 22.7403H10.8893V19.8856H14.1371C14.9254 19.8856 15.5645 20.5247 15.5645 21.313C15.5645 22.1013 14.9254 22.7403 14.1371 22.7403Z" fill="#B57561"/>
<path fill-rule="evenodd" clip-rule="evenodd" d="M29.2791 10.8333H1V60.1666H41.3784V22.9326L29.2791 10.8333ZM3 58.1666V12.8333H27.8649V24.3468H39.3784V58.1666H3ZM37.9642 22.3468L29.8649 14.2475V22.3468H37.9642Z" fill="#B57561"/>
</svg>
