<svg width="72" height="72" viewBox="0 0 72 72" fill="none" xmlns="http://www.w3.org/2000/svg">
<path d="M41 25C42.1046 25 43 24.1046 43 23C43 21.8954 42.1046 21 41 21C39.8954 21 39 21.8954 39 23C39 24.1046 39.8954 25 41 25Z" fill="#B57561"/>
<path d="M49 23C49 24.1046 48.1046 25 47 25C45.8954 25 45 24.1046 45 23C45 21.8954 45.8954 21 47 21C48.1046 21 49 21.8954 49 23Z" fill="#B57561"/>
<path d="M53 25C54.1046 25 55 24.1046 55 23C55 21.8954 54.1046 21 53 21C51.8954 21 51 21.8954 51 23C51 24.1046 51.8954 25 53 25Z" fill="#B57561"/>
<path fill-rule="evenodd" clip-rule="evenodd" d="M33 23C33 15.268 39.268 9 47 9C54.732 9 61 15.268 61 23C61 30.732 54.732 37 47 37C45.37 37 43.8033 36.721 42.346 36.2076L36.1631 38.5856L37.2675 33.0637C34.6373 30.5194 33 26.9503 33 23ZM47 11C40.3726 11 35 16.3726 35 23C35 26.5647 36.5531 29.7654 39.0227 31.9647L39.4506 32.3458L38.8369 35.4144L42.3381 34.0678L42.6969 34.2057C44.0314 34.7185 45.4816 35 47 35C53.6274 35 59 29.6274 59 23C59 16.3726 53.6274 11 47 11Z" fill="#B57561"/>
<path fill-rule="evenodd" clip-rule="evenodd" d="M21.3245 15.3378L30.8337 26.525L25.2607 32.6046L26.33 34.2498C29.5644 39.2258 33.7512 43.5129 38.6492 46.8641L39.9095 47.7264L45.949 42.1903L58.8461 52.2837L58.3321 53.0547C57.1024 54.8992 54.7854 57.527 51.7727 59.4992C48.757 61.4734 44.9432 62.8521 40.794 61.9786C35.8379 60.9352 31.3254 58.2131 27.9601 55.6732C24.8853 53.3526 22.705 51.1344 21.9679 50.3845C21.8955 50.3107 21.8369 50.2512 21.7929 50.2071C21.2611 49.6754 18.5872 46.8723 16.0388 42.9859C13.5077 39.126 11 34.0479 11 29C11 25.5592 12.6467 22.463 14.6111 20.1378C16.5632 17.8272 18.9572 16.1269 20.6838 15.5513L21.3245 15.3378ZM16.1389 21.4285C14.3533 23.542 13 26.1959 13 29C13 33.4521 15.2423 38.1241 17.7112 41.8892C20.1628 45.6277 22.7389 48.3247 23.2071 48.7929C23.2535 48.8393 23.3139 48.9008 23.388 48.9761C24.1256 49.7262 26.2134 51.8493 29.1649 54.0768C32.4246 56.537 36.6621 59.0649 41.206 60.0215C44.6568 60.748 47.9263 59.6267 50.6773 57.8259C53.0371 56.2811 54.941 54.2815 56.132 52.6992L46.051 44.8098L40.0905 50.2736L37.5198 48.5148C32.4041 45.0145 28.0313 40.5369 24.6531 35.3398L22.7393 32.3954L28.1663 26.4751L20.7066 17.6989C19.4324 18.3064 17.6735 19.6121 16.1389 21.4285Z" fill="#B57561"/>
</svg>
