<svg width="48" height="48" viewBox="0 0 48 48" fill="none" xmlns="http://www.w3.org/2000/svg">
<path fill-rule="evenodd" clip-rule="evenodd" d="M16.5 15.375H15.875V13.875C15.875 10.7371 18.335 8.1738 21.4317 8.00848C22.0899 7.09482 23.163 6.5 24.375 6.5C25.5868 6.5 26.6597 7.09459 27.3179 8.00795C30.622 8.17348 33.25 10.9048 33.25 14.25V15.75H33.2422C33.5536 16.0249 33.75 16.427 33.75 16.875C33.75 17.3122 33.5629 17.7058 33.2644 17.98C33.9403 18.506 34.375 19.3272 34.375 20.25C34.375 21.7788 33.1818 23.0289 31.6758 23.1197C31.4382 24.6975 30.6442 26.093 29.5 27.1V28.25H33C36.0376 28.25 38.5 30.7124 38.5 33.75V41.125H10.25V33.75C10.25 30.7124 12.7124 28.25 15.75 28.25H19.25V27.4066C17.9052 26.3865 16.9619 24.8646 16.6992 23.1197C15.1932 23.0289 14 21.7788 14 20.25C14 19.2283 14.5329 18.3311 15.336 17.8212C15.1259 17.5631 15 17.2337 15 16.875C15 16.0466 15.6716 15.375 16.5 15.375ZM22.75 10.125C22.75 9.22754 23.4775 8.5 24.375 8.5C25.2725 8.5 26 9.22754 26 10.125V13.5H28L28 10.1183C29.8647 10.568 31.25 12.2472 31.25 14.25V15.375H17.875V13.875C17.875 12.0807 19.0946 10.5712 20.75 10.1303V13.5H22.75V10.125ZM23.25 26.75C20.6957 26.75 18.625 24.6793 18.625 22.125V18.375H29.75V22.125C29.75 24.6793 27.6793 26.75 25.125 26.75H23.25ZM27.5 28.3116C26.7627 28.5948 25.962 28.75 25.125 28.75H23.25C22.553 28.75 21.881 28.6423 21.25 28.4428V28.8358L24.375 31.9608L27.5 28.8358V28.3116ZM16 20.25C16 19.8536 16.2636 19.5188 16.625 19.4112V21.0888C16.2636 20.9812 16 20.6464 16 20.25ZM32.375 20.25C32.375 20.6464 32.1114 20.9812 31.75 21.0888V19.4112C32.1114 19.5188 32.375 19.8536 32.375 20.25ZM19.8358 30.25L23.375 33.7892V39.125H19V30.25H19.8358ZM29.75 39.125H25.375V33.7892L28.9142 30.25H29.75V39.125ZM31.75 39.125V30.25H32V39.125H31.75ZM34 39.125V30.3949C35.4457 30.8252 36.5 32.1645 36.5 33.75V39.125H34ZM17 30.25V39.125H16.75V30.25H17ZM14.75 30.3949V39.125H12.25V33.75C12.25 32.1645 13.3043 30.8252 14.75 30.3949Z" fill="#B57561"/>
</svg>
