<svg width="48" height="48" viewBox="0 0 48 48" fill="none" xmlns="http://www.w3.org/2000/svg">
<path fill-rule="evenodd" clip-rule="evenodd" d="M14.9783 17.6407L22.489 13.4362V4.60364H24.489V12.9103L30.9997 16.555V4.60364H32.9997V17.6746L40.9464 22.1231H40.9543L40.9543 29.67L23.9615 39.8094L6.94825 29.6718L6.94824 22.1245H6.96842L12.9783 18.7603V4.60364H14.9783V17.6407ZM22.489 15.7283V27.1311H24.489V15.2024L30.9997 18.847V21.1238H32.9997V19.9666L36.9259 22.1644L23.9587 29.7602L10.9916 22.1644L12.9783 21.0523V21.1238H14.9783V19.9327L22.489 15.7283ZM8.94825 28.5354L8.94824 23.2854L23.9587 32.078L38.9543 23.2941L38.9543 28.5344L23.9608 37.4808L8.94825 28.5354Z" fill="#B57561"/>
</svg>
