<svg width="48" height="48" viewBox="0 0 48 48" fill="none" xmlns="http://www.w3.org/2000/svg">
<path fill-rule="evenodd" clip-rule="evenodd" d="M28.5 12.375L31.125 6.75L33.75 12.375V12.875H37.5C39.7091 12.875 41.5 14.6659 41.5 16.875V36.375C41.5 38.5841 39.7091 40.375 37.5 40.375H32V34.375H23.25V40.875H18V34.375H11.8125C9.2927 34.375 7.25 32.3323 7.25 29.8125V14.375C7.25 11.0613 9.93629 8.375 13.25 8.375H15.625V12.875H28.5V12.375ZM28.5 14.875H15.625V27.25H11.8125C10.3973 27.25 9.25 28.3973 9.25 29.8125C9.25 31.2277 10.3973 32.375 11.8125 32.375H18V18.375H23.25V32.375H37.5C38.2286 32.375 38.9117 32.5698 39.5 32.9101V16.875C39.5 15.7704 38.6046 14.875 37.5 14.875H33.75V25.5C33.75 26.9497 32.5747 28.125 31.125 28.125C29.6753 28.125 28.5 26.9497 28.5 25.5V14.875ZM30.5 14.875H31.75V25.5C31.75 25.8452 31.4702 26.125 31.125 26.125C30.7798 26.125 30.5 25.8452 30.5 25.5V14.875ZM20 32.375H21.25V20.375H20V32.375ZM21.25 34.375H20V38.875H21.25V34.375ZM9.25 26.037V14.375C9.25 12.1659 11.0409 10.375 13.25 10.375H13.625V25.25H11.8125C10.8626 25.25 9.98044 25.5403 9.25 26.037ZM39.5 36.375C39.5 35.2704 38.6046 34.375 37.5 34.375H34V38.375H37.5C38.6046 38.375 39.5 37.4796 39.5 36.375Z" fill="#B57561"/>
</svg>
