<svg width="48" height="48" viewBox="0 0 48 48" fill="none" xmlns="http://www.w3.org/2000/svg">
<path fill-rule="evenodd" clip-rule="evenodd" d="M19.5 6.50269V6.5H37V40.75H19.5V40.7451H12V6.50269H19.5ZM28.5 8.5H35V11.5297C34.4867 11.7211 33.8556 12.0461 33.2767 12.52C32.5515 13.1136 31.8413 13.9993 31.6394 15.2106C31.4305 16.4641 31.5147 17.432 31.9053 18.2784C32.2623 19.0518 32.843 19.632 33.3641 20.1526L33.4187 20.2071C33.8984 20.6868 34.2899 21.0121 34.6021 21.2256C34.7407 21.3203 34.8736 21.3998 35 21.4618V29.5421C34.6336 29.2778 34.2555 29.0102 33.9296 28.7929C33.8747 28.7563 33.792 28.6751 33.7033 28.4475C33.6102 28.2085 33.5411 27.8889 33.4724 27.4535C33.4506 27.315 33.4291 27.1642 33.4063 27.0041C33.2977 26.2417 33.1587 25.2658 32.8033 24.3782C32.2831 23.0794 31.2395 22.453 30.3628 22.1607C29.5055 21.8749 28.7197 21.875 28.5045 21.875H28.5V8.5ZM34.5436 14.0675C34.6926 13.9455 34.8476 13.8383 35 13.7456V18.9568C34.9467 18.9055 34.891 18.851 34.8329 18.7929C34.2426 18.2026 33.9143 17.8586 33.7213 17.4403C33.5494 17.068 33.4461 16.5359 33.6122 15.5394C33.7103 14.9507 34.0626 14.4614 34.5436 14.0675ZM34.5854 31.714C34.7326 31.8217 34.8734 31.9247 35 32.0166V38.75H33.9326C33.8074 37.6706 33.4859 36.0955 32.7941 34.4811C32.2515 33.2151 31.2513 32.2001 30.3565 31.4788C29.6572 30.9151 28.9714 30.4903 28.5 30.2284V23.875C28.6667 23.875 29.1877 23.8772 29.7302 24.058C30.2595 24.2345 30.7159 24.5456 30.9466 25.1218C31.2039 25.7644 31.3027 26.4449 31.4118 27.1965C31.4387 27.3816 31.4662 27.571 31.4968 27.7652C31.5687 28.2205 31.6635 28.7211 31.8398 29.1736C32.0205 29.6374 32.3127 30.1187 32.8202 30.4571C33.2503 30.7438 33.7967 31.1382 34.2948 31.5016C34.3929 31.5732 34.4906 31.6446 34.5854 31.714ZM30.9558 35.2689C31.5179 36.5804 31.7948 37.8586 31.9169 38.75H28.5V35.2359L28.5061 35.2344C28.5041 35.2264 28.5021 35.2185 28.5 35.2106V32.5852C28.6943 32.7208 28.8973 32.8714 29.1013 33.0359C29.8837 33.6666 30.5983 34.4349 30.9558 35.2689ZM26.5 31.5934V26.1448C26.4817 26.1109 26.4635 26.0771 26.4454 26.0437L26.4383 26.0303C26.2634 25.7057 26.0642 25.3366 25.7929 24.9297C25.7123 24.8087 25.4923 24.5938 25.0161 24.2411C24.6887 23.9985 24.3042 23.7356 23.8546 23.4281C23.6772 23.3068 23.4897 23.1786 23.2916 23.042C21.9165 22.0936 20.17 20.8342 18.4179 19.0821C16.8675 17.5317 15.9706 15.1518 15.4517 12.9514C15.0768 11.3616 14.8799 9.7799 14.7977 8.50269H14V21.298C14.9772 22.0629 15.9749 23.0607 17.1425 24.2283L17.2071 24.2929C17.5492 24.635 17.8975 24.998 18.2521 25.3676C18.9305 26.0747 19.6321 26.8059 20.3576 27.4609C20.8979 27.9486 21.4054 28.3496 21.8647 28.6241C22.3377 28.9069 22.6682 29 22.875 29C24.3002 29 25.332 29.9947 25.9612 30.8091C26.1612 31.068 26.3413 31.336 26.5 31.5934ZM14 23.9469V28.4269C14.475 28.7286 14.9693 29.1673 15.425 29.775C15.8269 30.3109 16.2053 30.9251 16.5526 31.4888C16.7124 31.7482 16.8656 31.9969 17.0114 32.2224C17.5091 32.9915 17.9943 33.6208 18.6 34.075C19.4577 34.7183 20.1883 35.558 20.7067 36.3361C20.9674 36.7272 21.1861 37.1202 21.3434 37.485C21.4897 37.8244 21.6242 38.2325 21.6242 38.625V38.7451L26.5 38.7451V35.5783C26.4895 35.5581 26.4774 35.5355 26.4635 35.5104C26.3863 35.3708 26.2842 35.2073 26.1634 35.0202C26.1243 34.9596 26.082 34.8948 26.0377 34.8271C25.836 34.5187 25.5949 34.1499 25.4454 33.8507C25.426 33.812 25.4052 33.77 25.383 33.7251C25.1747 33.3041 24.842 32.6318 24.3786 32.0319C23.8379 31.332 23.3248 31 22.875 31C22.1443 31 21.4436 30.7025 20.8384 30.3407C20.2196 29.9708 19.6021 29.4732 19.0174 28.9454C18.2423 28.2457 17.4419 27.4123 16.7331 26.6743C16.3945 26.3218 16.0768 25.9911 15.7929 25.7071C15.114 25.0282 14.5297 24.4451 14 23.9469ZM19.6242 38.7451H14V31.2155C14.2747 31.6042 14.5195 32.0025 14.7817 32.4293C14.9534 32.7086 15.1325 33.0001 15.3323 33.3089C15.8659 34.1335 16.5057 35.0042 17.4 35.675C18.0423 36.1567 18.6238 36.817 19.0424 37.4452C19.2503 37.7572 19.4064 38.0439 19.5068 38.2767C19.5972 38.4864 19.6182 38.5967 19.6229 38.6214C19.6235 38.625 19.6239 38.6267 19.624 38.6268C19.6241 38.6269 19.6242 38.6263 19.6242 38.625V38.7451ZM16.8022 8.50269C16.8825 9.65482 17.0636 11.0729 17.3983 12.4924C17.8919 14.5857 18.6825 16.5183 19.8321 17.6679C21.455 19.2908 23.0835 20.4689 24.4271 21.3955C24.6046 21.5179 24.7798 21.6378 24.9507 21.7547C25.4143 22.0717 25.8466 22.3673 26.2066 22.6339C26.3045 22.7065 26.4029 22.781 26.5 22.8574V17.243L25.5852 17.0905L25.4689 17.0388C24.8494 16.7636 23.8742 16.2447 22.8915 15.5567C21.919 14.8757 20.8665 13.9789 20.1671 12.9297C19.4192 11.8079 19.2105 10.5256 19.2211 9.44026C19.2242 9.11574 19.247 8.80084 19.2834 8.50269H16.8022ZM21.3028 8.50269C21.2562 8.79515 21.2243 9.11987 21.221 9.45974C21.2128 10.2994 21.3791 11.1421 21.8312 11.8203C22.3318 12.5711 23.1546 13.2993 24.0387 13.9183C24.851 14.4871 25.6536 14.9213 26.1689 15.1602L26.5 15.2154V8.50269H21.3028Z" fill="#B57561"/>
</svg>
