<svg width="72" height="72" viewBox="0 0 72 72" fill="none" xmlns="http://www.w3.org/2000/svg">
<path d="M8.29474 30.4565C8.75471 30.9165 8.75471 31.6622 8.29474 32.1222C7.83477 32.5821 7.08901 32.5821 6.62905 32.1222C6.16908 31.6622 6.16908 30.9165 6.62905 30.4565C7.08901 29.9965 7.83477 29.9965 8.29474 30.4565Z" fill="#B57561"/>
<path d="M64.1795 30.8559C64.6395 30.396 64.6395 29.6502 64.1795 29.1903C63.7195 28.7303 62.9738 28.7303 62.5138 29.1903C62.0538 29.6502 62.0538 30.396 62.5138 30.8559C62.9738 31.3159 63.7195 31.3159 64.1795 30.8559Z" fill="#B57561"/>
<path fill-rule="evenodd" clip-rule="evenodd" d="M0.0908203 30.2295L16.6485 13.6718L25.0793 22.1025L23.9183 23.2635L27.2703 26.6156C27.9009 27.2461 28.8719 27.3848 29.6537 26.9561C30.633 26.419 31.792 26.3152 32.8512 26.6695L34.15 27.1041C35.7986 26.1584 37.7893 25.9101 39.6593 26.4755L43.1834 27.5409C43.8892 27.7543 44.6551 27.562 45.1764 27.0407L48.6508 23.5663L47.0355 21.951L55.2643 13.7222L70.762 29.2198L62.5332 37.4486L60.9684 35.8838L58.6574 38.1948C57.4523 39.3998 56.6549 40.952 56.3771 42.6334C56.0312 44.727 55.0384 46.6597 53.5379 48.1602L50.6084 51.0897C51.7293 52.4638 51.6493 54.4908 50.3684 55.7717C49.8571 56.2831 49.2269 56.603 48.5667 56.7316C48.9204 57.9632 48.6121 59.3447 47.6419 60.315C46.3583 61.5986 44.3548 61.7236 42.931 60.69C42.7658 61.3014 42.4432 61.8792 41.9632 62.3592C40.52 63.8024 38.1929 63.8227 36.7247 62.4203C36.5532 62.9329 36.2633 63.4146 35.8551 63.8228C34.447 65.2309 32.1641 65.2309 30.756 63.8228L30.419 63.4858C29.1542 64.6609 27.1758 64.633 25.9449 63.4021C25.0571 62.5144 24.7951 61.2378 25.1588 60.1206C24.0416 60.4842 22.7652 60.2222 21.8775 59.3345C20.9795 58.4365 20.7217 57.1406 21.1043 56.0143C19.9778 56.397 18.6818 56.1393 17.7837 55.2412C16.5922 54.0497 16.5279 52.1579 17.5908 50.8908C16.6572 49.9824 15.1602 48.2883 14.054 46.2543C12.8343 44.0117 12.3633 41.3485 12.244 39.9585L9.73362 37.4481L8.52157 38.6602L0.0908203 30.2295ZM49.2069 49.6627L52.1237 46.746C53.3287 45.5409 54.1261 43.9888 54.4039 42.3074C54.7498 40.2138 55.7427 38.281 57.2432 36.7806L59.5542 34.4696L50.0651 24.9805L46.5906 28.4549C45.5479 29.4976 44.0161 29.8821 42.6046 29.4553L39.0805 28.3899C37.3161 27.8565 35.4014 28.337 34.098 29.6404L26.6434 37.095C25.8073 37.9311 25.8073 39.2867 26.6434 40.1228C27.4795 40.9589 28.8351 40.9589 29.6712 40.1228L35.5776 34.2164L36.9918 35.6306L36.3173 36.3051C36.7244 36.7804 37.2489 37.3486 37.8378 37.9104C38.7571 38.7873 39.7721 39.5892 40.6989 40.0264C42.5257 40.888 44.1871 40.4745 44.6794 40.2341L45.557 42.0313C44.8951 42.3545 43.5854 42.6916 42.0266 42.4824L49.2069 49.6627ZM34.6691 37.9533L31.0854 41.537C29.4682 43.1542 26.8463 43.1542 25.2292 41.537C23.612 39.9199 23.612 37.298 25.2292 35.6808L32.3119 28.5981L32.2166 28.5662C31.6862 28.3887 31.1058 28.4407 30.6154 28.7097C29.0541 29.5658 27.1152 29.2888 25.8561 28.0298L22.5041 24.6777L11.1478 36.0339L14.1981 39.0842L14.2154 39.472C14.2618 40.5093 14.6562 43.1755 15.811 45.2988C16.9906 47.4679 18.6942 49.2284 19.3678 49.8113C20.4067 49.5826 21.5367 49.8722 22.3447 50.6802C23.2427 51.5782 23.5005 52.8741 23.1179 54.0004C24.2444 53.6177 25.5404 53.8754 26.4385 54.7735C27.3262 55.6612 27.5882 56.9378 27.2245 58.055C28.3417 57.6914 29.6182 57.9534 30.5059 58.8411C31.3216 59.6568 31.609 60.8007 31.3681 61.8477L31.4887 61.7271L32.1702 62.4086C32.7972 63.0357 33.8139 63.0357 34.4409 62.4086C35.0658 61.7838 35.068 60.7721 34.4475 60.1445L34.4409 60.1379L26.945 52.642L28.3592 51.2278L35.8551 58.7237L35.864 58.7326L38.0764 60.945C38.7592 61.6278 39.8662 61.6278 40.549 60.945C41.2317 60.2622 41.2317 59.1552 40.549 58.4724L31.1347 49.0582L31.185 49.0079L31.0335 48.8565L32.4477 47.4423L43.9062 58.9007C44.5473 59.5418 45.5866 59.5418 46.2277 58.9007C46.8687 58.2597 46.8687 57.2203 46.2277 56.5793L34.7692 45.1208L36.1834 43.7066L46.8351 54.3575C47.4203 54.9427 48.3691 54.9427 48.9542 54.3575C49.5394 53.7724 49.5394 52.8236 48.9542 52.2385L34.6691 37.9533ZM8.52157 35.8318L22.2508 22.1025L16.6485 16.5002L2.91925 30.2295L8.52157 35.8318ZM19.1979 53.827C19.6764 54.3054 20.4521 54.3054 20.9305 53.827C21.4089 53.3486 21.4089 52.5729 20.9305 52.0944C20.4521 51.616 19.6764 51.616 19.1979 52.0944C18.7195 52.5729 18.7195 53.3486 19.1979 53.827ZM25.0243 57.9203C24.5458 58.3987 23.7701 58.3987 23.2917 57.9203C22.8133 57.4418 22.8133 56.6661 23.2917 56.1877C23.7701 55.7093 24.5458 55.7093 25.0243 56.1877C25.5027 56.6661 25.5027 57.4418 25.0243 57.9203ZM27.3591 61.9879C27.8375 62.4663 28.6132 62.4663 29.0916 61.9879C29.5701 61.5095 29.5701 60.7338 29.0916 60.2553C28.6132 59.7769 27.8375 59.7769 27.3591 60.2553C26.8806 60.7338 26.8806 61.5095 27.3591 61.9879ZM62.5332 34.6202L49.864 21.951L55.2643 16.5506L67.9335 29.2198L62.5332 34.6202Z" fill="#B57561"/>
</svg>
