<svg width="48" height="48" viewBox="0 0 48 48" fill="none" xmlns="http://www.w3.org/2000/svg">
<path fill-rule="evenodd" clip-rule="evenodd" d="M27.4335 10.2245L29.5039 5.03235L38.0002 8.42028L35.9298 13.6124C35.1213 15.6398 33.025 16.7692 30.9563 16.435L27.5281 25.0322L32.7382 27.1097L29.5385 35.134C29.2396 35.8837 28.8187 36.5483 28.3078 37.1143C28.4852 37.3389 28.6701 37.57 28.865 37.8082C30.747 40.1083 32.76 41.2823 33.4229 41.5524L33.0456 43.4785H10.7502L10.4287 41.5316C11.3903 41.2051 13.8208 40.275 15.4262 38.3128C15.8708 37.7695 16.3018 37.2173 16.7173 36.6849C16.9885 36.3374 17.2533 35.9982 17.5108 35.6756C16.6831 34.0423 16.5346 32.0748 17.2661 30.2403L20.4658 22.2161L25.6704 24.2914L29.0987 15.6939C27.3687 14.5127 26.6253 12.2514 27.4335 10.2245ZM30.6209 7.63088L35.4016 9.53724L34.072 12.8717C33.5456 14.1918 32.0486 14.8353 30.7285 14.3089C29.4083 13.7824 28.7648 12.2855 29.2913 10.9653L30.6209 7.63088ZM22.1456 32.3951C20.8788 32.3951 19.8585 33.1073 18.9821 33.9829C18.7016 33.0285 18.7268 31.9767 19.1239 30.9811L21.5828 24.8146L24.9324 26.1503L24.1674 28.0686L26.0252 28.8094L26.7901 26.891L30.1397 28.2267L27.6808 34.3932C27.5186 34.7999 27.305 35.1707 27.0504 35.5011C26.6414 34.983 26.2415 34.4994 25.8319 34.0823C24.8426 33.0747 23.7339 32.3951 22.1456 32.3951ZM27.3171 39.0747C27.1223 38.8366 26.9359 38.6038 26.7575 38.3781C25.0576 39.3787 22.9295 39.6105 20.9555 38.8234C20.0943 38.4799 19.3452 37.9756 18.7292 37.3588C18.6152 37.5044 18.4987 37.654 18.3791 37.8076C17.9579 38.3484 17.4983 38.9386 16.9741 39.5793C16.3533 40.3382 15.6426 40.9649 14.9279 41.4785H29.6905C28.925 40.8377 28.1067 40.0397 27.3171 39.0747ZM21.6963 36.9656C22.9854 37.4797 24.3688 37.3705 25.5128 36.7813C25.1041 36.2626 24.7493 35.8344 24.4048 35.4835C23.66 34.7249 23.0346 34.3951 22.1456 34.3951C21.6076 34.3951 20.9971 34.7318 20.0945 35.7124C20.0664 35.7429 20.0383 35.7737 20.0103 35.8048C20.4635 36.2986 21.032 36.7007 21.6963 36.9656Z" fill="#B57561"/>
</svg>
