<svg width="48" height="48" viewBox="0 0 48 48" fill="none" xmlns="http://www.w3.org/2000/svg">
<path fill-rule="evenodd" clip-rule="evenodd" d="M30.6873 7.6178L26.4409 11.8641L33.1647 22.6221L36.4462 19.3406L37.9192 20.8137C37.6065 21.6619 37.7908 22.6519 38.472 23.3331L41.5191 26.3802C42.4529 27.314 43.9668 27.314 44.9006 26.3802C45.8344 25.4464 45.8344 23.9324 44.9006 22.9987L41.8535 19.9516C41.1721 19.2701 40.1816 19.086 39.3332 19.3992L37.8604 17.9264L41.1091 14.6777L30.6873 7.6178ZM33.5282 19.4301L28.9802 12.1533L30.9333 10.2002L37.9828 14.9756L33.5282 19.4301ZM43.4864 24.4129L40.4393 21.3658C40.2866 21.2131 40.039 21.2131 39.8862 21.3658C39.7335 21.5185 39.7335 21.7662 39.8862 21.9189L42.9333 24.966C43.086 25.1187 43.3337 25.1187 43.4864 24.966C43.6391 24.8132 43.6391 24.5656 43.4864 24.4129Z" fill="#B57561"/>
<path fill-rule="evenodd" clip-rule="evenodd" d="M5.72559 20.1006V28.0709H12.1016V32.208H5.72559V40.1784H39.9674V32.208H35.5846V26.1776H18.4781V20.1006H5.72559ZM16.4781 22.1006H7.72559V26.0709H16.4781V22.1006ZM22.832 28.1776H14.1016V32.148H22.832V28.1776ZM24.8541 32.148V28.1776H33.5846V32.148H24.8541ZM16.4551 38.1784V34.208H7.72559V38.1784H16.4551ZM18.4781 38.1784H27.2076V34.208H18.4781V38.1784ZM37.9674 34.208H29.2148V38.1784H37.9674V34.208Z" fill="#B57561"/>
</svg>
