<svg width="72" height="72" viewBox="0 0 72 72" fill="none" xmlns="http://www.w3.org/2000/svg">
<path d="M68.8157 45.2859L64.4104 44.5518C64.2232 44.0214 64.0077 43.5019 63.7653 42.9943L66.3574 39.3564C66.6762 38.9154 66.6295 38.308 66.2461 37.9216L61.5289 33.2043C61.1425 32.8209 60.5351 32.7742 60.094 33.0931L56.4561 35.6852C55.9515 35.4358 55.4315 35.2203 54.8986 35.04L54.8653 34.8399L57.7802 34.1167C58.2764 33.9941 58.625 33.5486 58.6255 33.0375V28.5875C58.625 28.0765 58.2764 27.631 57.7802 27.5083L54.3424 26.6515C54.1045 25.2892 53.7509 23.9493 53.2855 22.6465L55.8219 20.1881C56.1894 19.833 56.2674 19.2728 56.0111 18.8307L53.7861 14.9817C53.5328 14.5377 53.0084 14.3262 52.5177 14.4697L49.0799 15.4486C48.3458 14.6475 47.055 13.3348 46.1874 12.5337L47.1553 9.10735C47.2989 8.61665 47.0878 8.09268 46.6438 7.83939L42.7948 5.61439C42.3528 5.35812 41.7925 5.4361 41.4374 5.80361L38.979 8.33999C37.6758 7.87562 36.3363 7.522 34.974 7.28311L34.1172 3.8453C33.9946 3.34915 33.5491 3.0005 33.038 3H28.588C28.077 3.0005 27.6315 3.34915 27.5088 3.8453L26.6521 7.28311C25.2897 7.522 23.9503 7.87562 22.6471 8.33999L20.1886 5.80361C19.8335 5.4361 19.2733 5.35812 18.8313 5.61439L14.9823 7.83939C14.5383 8.09268 14.3267 8.61715 14.4702 9.10784L15.4382 12.5118L15.3716 12.5784C14.801 12.1389 14.1007 11.9 13.3801 11.9H12.3679C11.6776 11.8995 11.0037 12.1135 10.4399 12.5118C9.87621 12.9102 9.44958 13.4739 9.21963 14.125L3.06706 31.5576C3.02286 31.6748 3.00001 31.799 3.00051 31.9246V48.6121C3.0025 48.7328 3.02137 48.8525 3.05613 48.9682L7.01638 60.8496H5.22545C4.67863 60.8481 4.21177 61.2444 4.12387 61.7843L3.01137 68.4593C2.96568 68.7821 3.05905 69.1094 3.26764 69.3602C3.47971 69.6061 3.78813 69.7481 4.11293 69.7496H30.8129C31.1377 69.7481 31.4462 69.6061 31.6582 69.3602C31.8668 69.1094 31.9602 68.7821 31.9145 68.4593L30.802 61.7843C30.7141 61.2444 30.2472 60.8481 29.7004 60.8496H27.4754V57.6457L27.5087 57.7793C27.6314 58.2755 28.0769 58.6241 28.5879 58.6246H33.0379C33.549 58.6241 33.9945 58.2755 34.1171 57.7793L34.8403 54.8644L35.0404 54.8977C35.2301 55.4252 35.4492 55.9412 35.697 56.4443L33.0935 60.0932C32.7747 60.5342 32.8213 61.1416 33.2048 61.528L37.922 66.2452C38.3084 66.6286 38.9158 66.6753 39.3568 66.3565L42.9948 63.7644C43.4994 64.0137 44.0193 64.2293 44.5522 64.4096L45.2863 68.8148C45.3742 69.3547 45.8411 69.751 46.3879 69.7495H53.0629C53.6097 69.751 54.0765 69.3547 54.1645 68.8148L54.8985 64.4096C55.4314 64.2293 55.9514 64.0137 56.456 63.7644L60.0939 66.3565C60.535 66.6753 61.1424 66.6286 61.5287 66.2452L66.246 61.528C66.6294 61.1416 66.6761 60.5342 66.3572 60.0932L63.7652 56.4552C64.0075 55.9476 64.2231 55.4282 64.4103 54.8977L68.8156 54.1637C69.3554 54.0758 69.7518 53.6089 69.7503 53.0621V46.3871C69.7518 45.8403 69.3556 45.3738 68.8157 45.2859ZM5.22519 48.4347V32.1146L11.3106 14.8715C11.4676 14.4226 11.8922 14.1231 12.3675 14.1261H13.3797C13.7298 14.1261 14.0596 14.2909 14.2697 14.5711C14.4798 14.8512 14.5458 15.2137 14.448 15.55L9.71978 31.6145C9.6875 31.7153 9.6726 31.8201 9.67508 31.9259V40.8259C9.6731 41.0176 9.72276 41.2058 9.8196 41.3712L15.3821 51.3837C15.6309 51.8222 16.144 52.0393 16.6322 51.9111C17.1204 51.7835 17.4611 51.343 17.4626 50.8384V37.4884C17.4626 36.874 17.9607 36.3759 18.5751 36.3759H19.1313C19.626 36.3759 20.0611 36.7022 20.1991 37.177L25.2501 54.3323V60.8513H9.36362L5.22519 48.4347ZM17.4627 30.8127C17.4627 27.272 18.8691 23.8764 21.3728 21.3729C23.8765 18.8693 27.272 17.4627 30.8127 17.4627C34.3534 17.4627 37.749 18.8692 40.2525 21.3729C42.7561 23.8766 44.1627 27.272 44.1627 30.8127C44.1627 34.3534 42.7562 37.749 40.2525 40.2526C37.7488 42.7561 34.3534 44.1627 30.8127 44.1627C28.4233 44.1657 26.0776 43.5195 24.0264 42.2938L22.3353 36.5421C22.1272 35.8533 21.7041 35.2488 21.1275 34.8187C20.5508 34.3881 19.8511 34.1537 19.1314 34.1502H18.5752C18.3472 34.1497 18.1198 34.1721 17.8968 34.2168C17.6067 33.1053 17.4607 31.9614 17.4627 30.8127ZM28.7545 63.0752L29.5 67.5252H5.42548L6.17096 63.0752H28.7545ZM33.9168 52.2616C33.4663 52.3237 33.1003 52.6544 32.993 53.096L32.17 56.4001H29.4553L28.6318 53.096C28.5221 52.6475 28.1456 52.3142 27.6867 52.2616C27.4195 52.2283 27.1637 52.1836 26.9303 52.1503L24.883 45.2081C29.2879 47.0258 34.2822 46.7304 38.4416 44.4045C42.6005 42.0792 45.4682 37.9798 46.2265 33.275C46.9849 28.5708 45.5506 23.7776 42.3323 20.2632C39.1144 16.7489 34.4663 14.899 29.7133 15.2406C24.9603 15.5823 20.6241 18.0784 17.9422 22.0169C15.2597 25.9558 14.5262 30.9045 15.9496 35.4521C15.4922 36.0327 15.2419 36.7488 15.2374 37.4879V46.5439L11.8999 40.5364V32.0814L16.5833 16.1835C16.7408 15.6243 16.7487 15.0332 16.6057 14.47C16.8729 14.2366 17.1172 14.0026 17.3954 13.7801C17.7485 13.505 17.899 13.0426 17.7738 12.6125L16.8396 9.34149L19.1982 7.98412L21.5569 10.4207C21.8717 10.744 22.3505 10.8448 22.7692 10.6765C24.3595 10.0507 26.0173 9.61015 27.7084 9.36383C28.1589 9.30175 28.5249 8.97099 28.6322 8.52946L29.4552 5.22527H32.1699L32.9934 8.52946C33.1006 8.97099 33.4662 9.30175 33.9166 9.36383C35.6078 9.61017 37.2656 10.0507 38.8559 10.6765C39.2746 10.8448 39.7538 10.744 40.0687 10.4207L42.4273 7.98412L44.7855 9.34149L43.8508 12.6125C43.7256 13.0426 43.8761 13.5055 44.2292 13.7806C45.4952 14.9234 46.702 16.1302 47.8449 17.3963C48.121 17.7484 48.5829 17.8979 49.013 17.7743L52.284 16.8396L53.6414 19.1982L51.2048 21.5568C50.8815 21.8717 50.7807 22.351 50.9491 22.7696C51.5778 24.3629 52.0184 26.0248 52.2617 27.7203C52.3277 28.1658 52.658 28.5269 53.0961 28.6327L56.4003 29.4561V32.1709L53.0961 32.9944C52.658 33.1001 52.3277 33.4602 52.2617 33.9057C52.0183 35.6013 51.5778 37.263 50.9491 38.8564C50.7807 39.2751 50.8815 39.7543 51.2048 40.0692L53.6414 42.4279L52.284 44.786L49.013 43.8513C48.5829 43.7276 48.121 43.8776 47.8449 44.2297C46.7021 45.4957 45.4953 46.7025 44.2292 47.8454C43.8761 48.1206 43.7261 48.5834 43.8513 49.0135L44.786 52.2845L42.4273 53.6419L40.0687 51.2054C39.7538 50.882 39.2746 50.7812 38.8559 50.9496C37.2656 51.5754 35.6079 52.0153 33.9168 52.2616ZM47.1549 52.5174L46.1869 49.091C47.0545 48.2899 48.3454 46.9772 49.0794 46.1761L52.5172 47.155C53.0079 47.2985 53.5319 47.0875 53.7852 46.6435L55.1981 44.196C57.1633 46.1617 57.9312 49.0264 57.2115 51.7107C56.4924 54.3956 54.3951 56.493 51.7101 57.2122C49.0257 57.9319 46.1609 57.164 44.1953 55.1988L46.6428 53.7858C47.0868 53.5325 47.2984 53.008 47.1549 52.5174ZM67.5244 52.1171L63.3858 52.8069C62.9671 52.8804 62.6244 53.1804 62.4958 53.5857C62.2435 54.4325 61.9078 55.2519 61.4945 56.0332C61.2969 56.4057 61.3272 56.8581 61.5725 57.2013L63.9977 60.6167L60.6154 63.999L57.2 61.5739C56.8568 61.3285 56.4048 61.2977 56.0323 61.4954C55.2521 61.9106 54.4321 62.2463 53.5848 62.4966C53.1796 62.6253 52.8796 62.968 52.8061 63.3866L52.1162 67.5253H47.3325L46.6426 63.3866C46.5691 62.968 46.2691 62.6253 45.8639 62.4966C45.0166 62.2463 44.1967 61.9106 43.4164 61.4954C43.0439 61.2977 42.5914 61.328 42.2482 61.5734L38.8328 63.9985L35.4506 60.6162L37.8757 57.2008C38.1121 56.8725 38.1513 56.4424 37.9765 56.0774C37.6189 55.3677 37.307 54.6356 37.0418 53.8862C37.6984 53.7084 38.3435 53.5077 38.9778 53.2852L41.4362 55.8216C41.6066 55.9875 41.8241 56.0963 42.059 56.133C43.8554 58.2949 46.4783 59.6002 49.2858 59.7298C52.0929 59.8594 54.8254 58.8005 56.8126 56.8134C58.7997 54.8262 59.8585 52.0937 59.729 49.2866C59.5993 46.479 58.2942 43.8562 56.1322 42.0598C56.0955 41.8249 55.9867 41.6074 55.8208 41.437L53.2844 38.9786C53.5069 38.3558 53.7071 37.7101 53.8854 37.054C54.6244 37.2949 55.3426 37.5959 56.0325 37.9549C56.405 38.1526 56.8574 38.1223 57.2006 37.877L60.616 35.4518L63.9983 38.8341L61.5732 42.2495C61.3278 42.5927 61.297 43.0447 61.4947 43.4172C61.9079 44.1984 62.2436 45.0179 62.4959 45.8647C62.6246 46.2699 62.9673 46.5699 63.3859 46.6434L67.5246 47.3333L67.5244 52.1171Z" fill="#B57561"/>
</svg>
