<?xml version="1.0" encoding="utf-8"?><svg xmlns="http://www.w3.org/2000/svg" xmlns:xlink="http://www.w3.org/1999/xlink"><symbol viewBox="0 0 22 24" id="basket" xmlns="http://www.w3.org/2000/svg"><g clip-path="url(#aa)"><path d="M10.363 18.443a2.046 2.046 0 0 0-2.045 2.042 2.046 2.046 0 0 0 4.09 0 2.046 2.046 0 0 0-2.045-2.042Zm6.134 0a2.046 2.046 0 0 0-2.045 2.042 2.046 2.046 0 0 0 4.089 0 2.046 2.046 0 0 0-2.044-2.042Zm3.978-8.199L7.413 6.891a.614.614 0 0 0-.75.73L8.67 16.4h-.786L5.482 5.895a.613.613 0 0 0-.474-.464l-4.27-.882A.614.614 0 0 0 .489 5.75l3.885.802L6.797 17.15a.613.613 0 0 0 .598.477h12.07a.615.615 0 0 0 .607-.53l.858-6.175a.613.613 0 0 0-.455-.678Zm-8.14 3.91a.613.613 0 0 1-1.227 0v-2.696a.613.613 0 0 1 1.227 0v2.696Zm2.625 0a.613.613 0 0 1-1.227 0v-1.88a.613.613 0 0 1 1.227 0v1.88Zm2.625 0a.613.613 0 0 1-1.227 0v-1.226a.613.613 0 0 1 1.227 0v1.226Z"/></g><path fill-rule="evenodd" clip-rule="evenodd" d="M16.268 4.568a2.996 2.996 0 0 0-1.693-.523c-.627 0-1.21.193-1.693.523-.28-.843-.492-1.752-.492-2.383C12.39.98 13.37 0 14.575 0s2.185.98 2.185 2.185c0 .631-.212 1.54-.492 2.383Zm-4.722 2.274.024.006v-.011l-.024.005Zm4.972 1.217c-1.333-.33-2.766-.681-4.129-1.013a2.185 2.185 0 1 1 4.129 1.013Zm4.436 1.103c-.866-.217-2.155-.538-3.618-.9a2.995 2.995 0 0 0 .243-1.425c.87.18 1.762.45 2.308.765.596.344.969.928 1.067 1.56ZM9.869 6.439c-.36-.086-.706-.167-1.03-.243a2.19 2.19 0 0 1-.376-2.667 2.188 2.188 0 0 1 3.147-.7c.098.738.338 1.599.61 2.353a3.01 3.01 0 0 0-.449.774c-.628.113-1.305.278-1.902.483Zm10.124.075a3.43 3.43 0 0 1-.217.114c-.696-.295-1.587-.526-2.397-.672a3.01 3.01 0 0 0-.449-.774c.262-.727.494-1.553.599-2.273.095-.067.189-.128.278-.18a2.188 2.188 0 0 1 2.986.8 2.188 2.188 0 0 1-.8 2.985Z"/><defs><clipPath id="aa"><path transform="translate(0 3.064)" d="M0 0h20.936v20.936H0z"/></clipPath></defs></symbol><symbol viewBox="0 0 25 24" id="catalog" xmlns="http://www.w3.org/2000/svg"><path d="M4.417 3a1 1 0 0 0-1 1v6a1 1 0 0 0 1 1h6a1 1 0 0 0 1-1V4a1 1 0 0 0-1-1h-6Zm0 10a1 1 0 0 0-1 1v6a1 1 0 0 0 1 1h6a1 1 0 0 0 1-1v-6a1 1 0 0 0-1-1h-6Zm9-9a1 1 0 0 1 1-1h6a1 1 0 0 1 1 1v6a1 1 0 0 1-1 1h-6a1 1 0 0 1-1-1V4Zm1 9a1 1 0 0 0-1 1v6a1 1 0 0 0 1 1h6a1 1 0 0 0 1-1v-6a1 1 0 0 0-1-1h-6Z"/></symbol><symbol viewBox="0 0 344.96 344.96" id="check" xmlns="http://www.w3.org/2000/svg"><g data-name="Слой 2"><path class="ccls-1" d="m321.85 86.24-40-23.11-23.1-40H212.5L172.48 0l-40 23.11H86.24l-23.11 40-40 23.1v46.21L0 172.48l23.11 40v46.21l40 23.11 23.11 40h46.21l40 23.1 40-23.11h46.21l23.11-40 40-23.11V212.5l23.11-40-23.11-40V86.24ZM156.91 243.07a16.79 16.79 0 0 1-23.34 0l-50.45-50.44a16.19 16.19 0 0 1 0-22.89l13.35-13.35a16.19 16.19 0 0 1 22.89 0l25.87 25.87 80.34-80.35a16.19 16.19 0 0 1 22.89 0l13.35 13.35a16.19 16.19 0 0 1 0 22.89Z" data-name="Capa 1"/></g></symbol><symbol viewBox="0 0 16 16" id="chevron-down" xmlns="http://www.w3.org/2000/svg"><path fill-rule="evenodd" clip-rule="evenodd" d="M8 9.701 5.083 6.784l-.566.566L8 10.832l3.483-3.482-.566-.566L8 9.7Z"/></symbol><symbol viewBox="0 0 24 24" id="chevron-left" xmlns="http://www.w3.org/2000/svg"><path d="m14 18-6-6 6-6"/></symbol><symbol viewBox="0 0 24 25" id="chevron-right" xmlns="http://www.w3.org/2000/svg"><path d="m10 18.177 6-6-6-6"/></symbol><symbol viewBox="0 0 28 16" id="designLogo" xmlns="http://www.w3.org/2000/svg"><path fill-rule="evenodd" clip-rule="evenodd" d="m23 11-1-2c.022 0 .042 0 0 0 3.048-.075 4.049-1.657 4.049-3.5a3.6 3.6 0 0 0-3.512-3.536C18.108 2 19.307 8.381 19 7c-.565-.31-.892-1.343-1.686-1.54a12.176 12.176 0 0 0-6.629 0c-.794.2-1.12 1.23-1.686 1.54-.307 1.381.892-5-3.537-5.036A3.6 3.6 0 0 0 1.951 5.5c0 1.843 1 3.425 4.049 3.5-.044 0-.023 0 0 0l-1 2a5.6 5.6 0 0 1-5-5.522A5.52 5.52 0 0 1 5.463 0a5.187 5.187 0 0 1 4.845 3.475c.03.071.053.15.08.225a23.804 23.804 0 0 1 3.088-.657c.173-.028.348-.042.524-.043 1.226.103 2.436.338 3.612.7.027-.075.05-.155.08-.225A5.187 5.187 0 0 1 22.537 0 5.521 5.521 0 0 1 28 5.478 5.6 5.6 0 0 1 23 11Zm-1-2c-.022 0-.048 0 0 0ZM6 9c.048 0 .022 0 0 0Zm3.318 0a1.342 1.342 0 0 1 .627 1.691 1.069 1.069 0 1 1-.628-1.684L9.318 9ZM14 8.995c1.1 0 2 1.57 2 3.505 0 1.935-.9 3.5-2 3.5-1.076 0-1.952-1.492-2-3.355v-.3c.045-1.861.921-3.35 2-3.35Zm4.686.013a1.354 1.354 0 0 1 1.261 1.292 1.069 1.069 0 1 1-1.89.4 1.342 1.342 0 0 1 .626-1.693l.003.001Z"/></symbol><symbol viewBox="0 0 24 24" id="fb" xmlns="http://www.w3.org/2000/svg"><path d="M13.397 20.997v-8.196h2.765l.411-3.209h-3.176V7.548c0-.926.258-1.56 1.587-1.56h1.684v-2.86A22.108 22.108 0 0 0 14.201 3c-2.444 0-4.122 1.492-4.122 4.231v2.355H7.332v3.21h2.753v8.201h3.312Z"/></symbol><symbol viewBox="0 0 24 24" id="instagram" xmlns="http://www.w3.org/2000/svg"><path d="M11.999 7.377a4.624 4.624 0 1 0 0 9.248 4.624 4.624 0 0 0 0-9.248Zm0 7.627a3.004 3.004 0 1 1 0-6.008 3.004 3.004 0 0 1 0 6.008Zm4.807-6.719a1.078 1.078 0 1 0 0-2.156 1.078 1.078 0 0 0 0 2.156Z"/><path d="M20.533 6.11A4.605 4.605 0 0 0 17.9 3.48a6.607 6.607 0 0 0-2.186-.42c-.963-.042-1.268-.054-3.71-.054s-2.755 0-3.71.054a6.554 6.554 0 0 0-2.184.42 4.6 4.6 0 0 0-2.633 2.63 6.585 6.585 0 0 0-.419 2.186c-.043.962-.056 1.267-.056 3.71 0 2.442 0 2.753.056 3.71.015.748.156 1.486.419 2.187a4.61 4.61 0 0 0 2.634 2.632 6.583 6.583 0 0 0 2.185.45c.963.042 1.268.055 3.71.055s2.755 0 3.71-.055a6.616 6.616 0 0 0 2.186-.42 4.613 4.613 0 0 0 2.633-2.632c.263-.7.404-1.438.419-2.186.043-.962.056-1.267.056-3.71s0-2.753-.056-3.71a6.583 6.583 0 0 0-.421-2.217Zm-1.218 9.533a5.046 5.046 0 0 1-.311 1.688 2.987 2.987 0 0 1-1.712 1.71c-.535.2-1.1.305-1.67.312-.95.044-1.218.055-3.654.055-2.438 0-2.687 0-3.655-.055a4.961 4.961 0 0 1-1.67-.311 2.984 2.984 0 0 1-1.718-1.711 5.08 5.08 0 0 1-.311-1.67c-.043-.95-.053-1.217-.053-3.653 0-2.437 0-2.686.053-3.655a5.038 5.038 0 0 1 .311-1.687c.305-.79.93-1.41 1.719-1.712a5.01 5.01 0 0 1 1.669-.311c.95-.043 1.218-.055 3.655-.055s2.687 0 3.654.055a4.96 4.96 0 0 1 1.67.31 2.99 2.99 0 0 1 1.712 1.713 5.06 5.06 0 0 1 .311 1.669c.043.95.054 1.218.054 3.655 0 2.436 0 2.698-.043 3.654h-.011v-.001Z"/></symbol><symbol viewBox="0 0 24 24" id="mail" xmlns="http://www.w3.org/2000/svg"><path fill-rule="evenodd" clip-rule="evenodd" d="M3.429 5.143v1.142l8.565 5.958 8.578-6.238v-.862H3.429Zm17.143 2.099-8.565 6.229-8.578-5.968v11.354h17.143V7.242Z"/></symbol><symbol viewBox="0 0 33 33" id="map-pin" xmlns="http://www.w3.org/2000/svg"><path fill-rule="evenodd" clip-rule="evenodd" d="M16.961 29.026S26.95 22.368 26.95 14.6a9.988 9.988 0 1 0-19.975 0c0 7.768 9.987 14.426 9.987 14.426Zm4.661-13.76a4.661 4.661 0 1 1-9.322 0 4.661 4.661 0 0 1 9.322 0Z"/><path d="m16.961 29.026-.373.561c.226.15.52.15.747 0l-.374-.56Zm7.063-21.489.476-.476-.476.476Zm-14.125 0-.476-.476.476.476ZM6.974 14.6H6.3h.674Zm19.301 0c0 3.613-2.339 7.056-4.809 9.663a33.086 33.086 0 0 1-4.47 3.916 18.95 18.95 0 0 1-.385.27c-.008.007-.015.01-.018.014-.003 0-.004.002-.005.002v.001l.373.56c.374.561.374.56.375.56l.002-.001.007-.004a4.94 4.94 0 0 1 .112-.077 31.296 31.296 0 0 0 1.485-1.112 34.444 34.444 0 0 0 3.502-3.202c2.524-2.664 5.179-6.435 5.179-10.59h-1.348Zm-2.728-6.586a9.314 9.314 0 0 1 2.728 6.586h1.348c0-2.828-1.123-5.54-3.123-7.539l-.953.953Zm-6.586-2.728c2.47 0 4.84.981 6.586 2.728l.953-.953c-2-2-4.711-3.123-7.539-3.123v1.348Zm-6.586 2.728a9.314 9.314 0 0 1 6.586-2.728V3.938a10.662 10.662 0 0 0-7.538 3.123l.952.953ZM7.647 14.6c0-2.47.982-4.84 2.728-6.586l-.952-.953c-2 2-3.123 4.711-3.123 7.539h1.347Zm9.314 14.426.374-.56-.005-.003-.019-.013a11.854 11.854 0 0 1-.384-.271 33.086 33.086 0 0 1-4.47-3.916c-2.47-2.608-4.81-6.05-4.81-9.663H6.3c0 4.155 2.655 7.926 5.178 10.59a34.444 34.444 0 0 0 4.66 4.081 20.998 20.998 0 0 0 .44.31l.007.004.002.001.374-.56Zm0-8.426a5.335 5.335 0 0 0 5.335-5.334H20.95a3.987 3.987 0 0 1-3.988 3.987V20.6Zm-5.334-5.334A5.335 5.335 0 0 0 16.96 20.6v-1.347a3.987 3.987 0 0 1-3.987-3.987h-1.347ZM16.96 9.93a5.335 5.335 0 0 0-5.334 5.335h1.347a3.987 3.987 0 0 1 3.987-3.988V9.931Zm5.335 5.335A5.335 5.335 0 0 0 16.96 9.93v1.347a3.987 3.987 0 0 1 3.988 3.988h1.347Z"/></symbol><symbol viewBox="0 0 16 16" id="pin" xmlns="http://www.w3.org/2000/svg"><path fill-rule="evenodd" clip-rule="evenodd" d="M8 14.104s4.994-3.33 4.994-7.214a4.994 4.994 0 0 0-9.988 0C3.006 10.774 8 14.104 8 14.104Zm2.33-6.88a2.33 2.33 0 1 1-4.66 0 2.33 2.33 0 0 1 4.66 0Z"/><path d="m8 14.104-.277.416a.5.5 0 0 0 .555 0L8 14.104Zm3.531-10.745.354-.353-.354.353Zm.963 3.531c0 1.741-1.131 3.423-2.36 4.72a16.396 16.396 0 0 1-2.4 2.07 1.238 1.238 0 0 1-.011.008l.277.416.278.416.001-.002.004-.002a.812.812 0 0 0 .058-.04 15.771 15.771 0 0 0 .751-.563 17.376 17.376 0 0 0 1.768-1.616c1.269-1.338 2.634-3.264 2.634-5.407h-1Zm-1.316-3.177a4.494 4.494 0 0 1 1.316 3.177h1a5.494 5.494 0 0 0-1.61-3.884l-.706.707ZM8 2.396c1.192 0 2.335.474 3.178 1.317l.707-.707A5.494 5.494 0 0 0 8 1.396v1ZM4.823 3.713A4.494 4.494 0 0 1 8 2.396v-1a5.494 5.494 0 0 0-3.885 1.61l.708.707ZM3.506 6.89a4.49 4.49 0 0 1 1.317-3.177l-.708-.707A5.494 5.494 0 0 0 2.506 6.89h1ZM8 14.104l.278-.416a.162.162 0 0 1-.011-.008 4.87 4.87 0 0 1-.189-.132 16.39 16.39 0 0 1-2.212-1.938c-1.228-1.297-2.36-2.979-2.36-4.72h-1c0 2.143 1.366 4.069 2.634 5.407a17.375 17.375 0 0 0 2.565 2.21c.005.004.01.007.012.01.002 0 .003 0 .004.002h.001L8 14.105Zm0-4.05a2.83 2.83 0 0 0 2.83-2.83h-1A1.83 1.83 0 0 1 8 9.054v1Zm-2.83-2.83A2.83 2.83 0 0 0 8 10.053v-1a1.83 1.83 0 0 1-1.83-1.83h-1ZM8 4.392a2.83 2.83 0 0 0-2.83 2.83h1c0-1.01.82-1.83 1.83-1.83v-1Zm2.83 2.83A2.83 2.83 0 0 0 8 4.393v1c1.011 0 1.83.82 1.83 1.83h1Z"/></symbol><symbol viewBox="0 0 16 16" id="search" xmlns="http://www.w3.org/2000/svg"><path fill-rule="evenodd" clip-rule="evenodd" d="M7.429 3.524a3.905 3.905 0 1 0 2.61 6.81l.294-.296a3.905 3.905 0 0 0-2.905-6.514Zm4.145 7.107a5.238 5.238 0 1 0-.943.943l2.512 2.512.943-.943-2.512-2.512Z"/></symbol><symbol viewBox="0 0 24 24" id="tel" xmlns="http://www.w3.org/2000/svg"><path d="m11.107 7.619-3.26-4.257-.373.195a7.78 7.78 0 0 0-1.1.69c-.425.324-.893.767-1.175 1.32-1.502 2.94-.384 6.093 1.44 8.563 1.824 2.472 4.47 4.429 6.369 5.039 1.919.617 3.42.305 4.508-.386a4.913 4.913 0 0 0 1.956-2.437l.116-.33-3.725-3.026-2.41 2.562-.024-.015a22.87 22.87 0 0 1-.891-.553c-.71-.464-1.54-1.067-2.107-1.659-.546-.57-1.001-1.408-1.325-2.135a13.556 13.556 0 0 1-.399-.998l2.4-2.573Z"/></symbol><symbol viewBox="0 0 24 24" id="telegram" xmlns="http://www.w3.org/2000/svg"><path fill-rule="evenodd" clip-rule="evenodd" d="M3.087 11.422c4.832-2.105 8.054-3.493 9.666-4.164 4.603-1.914 5.56-2.247 6.183-2.258.137-.002.443.032.642.193.168.136.214.32.236.449.022.129.05.423.028.652-.25 2.621-1.33 8.981-1.878 11.916-.233 1.242-.69 1.659-1.133 1.7-.963.088-1.693-.636-2.626-1.247-1.458-.957-2.283-1.552-3.698-2.485-1.637-1.079-.576-1.671.357-2.64.244-.253 4.484-4.11 4.566-4.46.01-.044.02-.208-.077-.294-.096-.086-.24-.056-.343-.033-.146.033-2.476 1.574-6.991 4.621-.661.454-1.26.675-1.797.664-.592-.013-1.73-.335-2.577-.61-1.038-.337-1.863-.516-1.791-1.089.037-.298.448-.603 1.233-.915Z"/></symbol><symbol viewBox="0 0 16 16" id="viber" xmlns="http://www.w3.org/2000/svg"><path d="M8 1.335c-1.071.013-3.374.19-4.662 1.37-.958.948-1.292 2.35-1.331 4.084-.033 1.728-.072 4.973 3.058 5.856v1.346s-.02.538.337.648c.438.14.688-.275 1.105-.72l.778-.879c2.142.178 3.782-.232 3.97-.293.435-.139 2.883-.451 3.283-3.696.41-3.351-.2-5.463-1.301-6.418h-.007c-.332-.306-1.668-1.279-4.652-1.29 0 0-.222-.014-.578-.008Zm.037.942a7.02 7.02 0 0 1 .488.011c2.527.007 3.732.767 4.017 1.023.927.794 1.405 2.697 1.055 5.495-.332 2.713-2.317 2.885-2.685 3.002-.156.05-1.6.406-3.42.289 0 0-1.356 1.634-1.78 2.055-.067.074-.146.095-.196.085-.071-.018-.093-.107-.089-.229l.013-2.233c-2.655-.733-2.498-3.5-2.47-4.946.033-1.446.304-2.628 1.113-3.43 1.088-.982 3.043-1.115 3.953-1.122Zm.2 1.446a.166.166 0 1 0 0 .332 3.136 3.136 0 0 1 2.242.883c.606.588.9 1.378.912 2.411 0 .092.074.167.167.167V7.51a.167.167 0 0 0 .168-.165 3.588 3.588 0 0 0-1.009-2.646c-.66-.645-1.496-.977-2.48-.977Zm-2.198.382a.523.523 0 0 0-.342.067H5.69a2.61 2.61 0 0 0-.637.523 1.003 1.003 0 0 0-.256.525.71.71 0 0 0 .026.302l.01.006c.172.504.396.988.67 1.444a8.48 8.48 0 0 0 1.29 1.762l.015.022.024.017.015.018.017.015c.532.505 1.127.94 1.769 1.295.734.4 1.18.588 1.447.667v.004c.078.024.15.034.221.034.228-.016.444-.109.613-.262a2.53 2.53 0 0 0 .517-.638v-.004c.128-.241.085-.469-.1-.623-.37-.323-.77-.61-1.195-.857-.285-.155-.574-.061-.69.095l-.25.315c-.129.156-.361.134-.361.134l-.007.004C7.093 8.527 6.63 6.772 6.63 6.772s-.022-.239.139-.36l.312-.252c.15-.122.254-.41.094-.695a7.498 7.498 0 0 0-.856-1.194.475.475 0 0 0-.28-.167Zm2.486.495c-.221 0-.221.334.003.334A2.098 2.098 0 0 1 10 5.572 1.94 1.94 0 0 1 10.5 7a.168.168 0 0 0 .167.165l.007.009a.169.169 0 0 0 .167-.167c.015-.662-.191-1.218-.595-1.663C9.84 4.9 9.273 4.65 8.549 4.6h-.024Zm.274.898c-.228-.006-.236.335-.01.341.55.029.816.306.851.877a.166.166 0 0 0 .165.163h.007a.168.168 0 0 0 .16-.178c-.039-.744-.445-1.164-1.166-1.202H8.8Z"/></symbol><symbol viewBox="0 0 24 24" id="vk" xmlns="http://www.w3.org/2000/svg"><path d="M21.579 6.855c.14-.465 0-.806-.662-.806h-2.193c-.558 0-.813.295-.953.619 0 0-1.115 2.719-2.695 4.482-.51.513-.743.675-1.021.675-.139 0-.341-.162-.341-.627V6.855c0-.558-.161-.806-.626-.806H9.642c-.348 0-.558.258-.558.504 0 .528.79.65.871 2.138v3.228c0 .707-.127.836-.407.836-.743 0-2.551-2.73-3.624-5.853-.209-.607-.42-.852-.98-.852H2.752c-.627 0-.752.295-.752.619 0 .582.743 3.462 3.461 7.27 1.812 2.602 4.363 4.012 6.687 4.012 1.393 0 1.565-.313 1.565-.853v-1.966c0-.626.133-.752.574-.752.324 0 .882.164 2.183 1.417 1.486 1.486 1.732 2.153 2.567 2.153h2.192c.626 0 .939-.313.759-.931-.197-.615-.907-1.51-1.849-2.57-.512-.603-1.277-1.253-1.51-1.578-.325-.42-.231-.604 0-.976.001 0 2.672-3.761 2.95-5.04Z"/></symbol><symbol viewBox="0 0 20 21" id="vk2" xmlns="http://www.w3.org/2000/svg"><path fill-rule="evenodd" clip-rule="evenodd" d="M12.559 2.424H7.442c-4.67 0-5.775 1.105-5.775 5.775v5.116c0 4.67 1.106 5.775 5.775 5.775h5.117c4.669 0 5.775-1.105 5.775-5.775V8.2c0-4.67-1.106-5.775-5.775-5.775Zm2.617 5.011c.383 0 .47.19.383.451-.135.598-1.256 2.185-1.603 2.676-.066.094-.104.148-.102.148-.136.213-.185.308 0 .545.067.088.21.222.371.375.167.157.356.334.506.503.544.593.964 1.091 1.075 1.435.1.344-.074.522-.445.522H14.09c-.338 0-.511-.186-.882-.582-.159-.17-.354-.378-.613-.628-.754-.7-1.088-.795-1.273-.795-.26 0-.334.06-.334.416v1.103c0 .296-.098.474-.914.474-1.347 0-2.842-.782-3.892-2.242C4.6 9.701 4.168 8.088 4.168 7.768c0-.178.062-.344.432-.344h1.285c.322 0 .445.13.569.474.63 1.744 1.68 3.274 2.113 3.274.16 0 .234-.071.234-.463V8.907c-.03-.512-.216-.735-.354-.901-.085-.103-.152-.183-.152-.297 0-.142.123-.284.321-.284h2.002c.272 0 .37.142.37.45v2.432c0 .261.112.356.198.356.16 0 .297-.095.593-.38.915-.984 1.57-2.503 1.57-2.503a.564.564 0 0 1 .555-.344h1.273Z"/></symbol><symbol viewBox="0 0 24 24" id="whatsapp" xmlns="http://www.w3.org/2000/svg"><path fill-rule="evenodd" clip-rule="evenodd" d="M21 12a9 9 0 0 1-13.527 7.78L3 21l1.22-4.473A9 9 0 1 1 21 12ZM9.44 7.506c.17.007.36.015.539.412.123.272.33.78.495 1.184.12.297.219.538.244.588.06.12.1.26.02.419l-.033.067c-.06.122-.104.212-.206.33l-.124.149c-.082.1-.165.199-.236.27-.12.119-.245.248-.106.487.14.239.622 1.02 1.335 1.653.766.68 1.432.968 1.77 1.114.066.028.12.052.159.071.24.12.38.1.52-.06.14-.159.6-.697.76-.935.16-.24.32-.2.539-.12.22.08 1.4.657 1.64.777l.13.063c.168.08.28.135.33.215.059.1.059.578-.14 1.136-.2.557-1.18 1.095-1.62 1.134a4.592 4.592 0 0 0-.128.014c-.406.048-.92.108-2.75-.61-2.255-.886-3.74-3.078-4.047-3.53a2.459 2.459 0 0 0-.052-.075l-.002-.004c-.13-.173-.977-1.3-.977-2.465 0-1.1.543-1.676.793-1.941l.012-.014.035-.036a.883.883 0 0 1 .64-.299h.025c.151 0 .302 0 .434.006Z"/></symbol></svg>