<svg width="25" height="24" viewBox="0 0 25 24" fill="none" xmlns="http://www.w3.org/2000/svg">
<path d="M4.41699 3C3.86471 3 3.41699 3.44772 3.41699 4V10C3.41699 10.5523 3.86471 11 4.41699 11H10.417C10.9693 11 11.417 10.5523 11.417 10V4C11.417 3.44772 10.9693 3 10.417 3H4.41699Z" fill="#493B2B"/>
<path d="M4.41699 13C3.86471 13 3.41699 13.4477 3.41699 14V20C3.41699 20.5523 3.86471 21 4.41699 21H10.417C10.9693 21 11.417 20.5523 11.417 20V14C11.417 13.4477 10.9693 13 10.417 13H4.41699Z" fill="#493B2B"/>
<path d="M13.417 4C13.417 3.44772 13.8647 3 14.417 3H20.417C20.9693 3 21.417 3.44772 21.417 4V10C21.417 10.5523 20.9693 11 20.417 11H14.417C13.8647 11 13.417 10.5523 13.417 10V4Z" fill="#493B2B"/>
<path d="M14.417 13C13.8647 13 13.417 13.4477 13.417 14V20C13.417 20.5523 13.8647 21 14.417 21H20.417C20.9693 21 21.417 20.5523 21.417 20V14C21.417 13.4477 20.9693 13 20.417 13H14.417Z" fill="#493B2B"/>
</svg>
