<svg width="28" height="16" viewBox="0 0 28 16" fill="none" xmlns="http://www.w3.org/2000/svg">
<path opacity="0.8" fill-rule="evenodd" clip-rule="evenodd" d="M23 11L22 9C22.022 9 22.042 9 22 9C25.048 8.925 26.049 7.343 26.049 5.5C26.0328 4.57139 25.6583 3.68499 25.0038 3.02604C24.3493 2.36708 23.4655 1.98656 22.537 1.964C18.108 2 19.307 8.381 19 7C18.435 6.69 18.108 5.657 17.314 5.46C15.1469 4.84692 12.8521 4.84692 10.685 5.46C9.891 5.66 9.565 6.69 8.999 7C8.692 8.381 9.891 2 5.462 1.964C4.5337 1.98682 3.65012 2.36744 2.99585 3.02637C2.34158 3.6853 1.96722 4.57156 1.951 5.5C1.951 7.343 2.951 8.925 6 9C5.956 9 5.977 9 6 9L5 11C3.63443 10.8529 2.37054 10.2091 1.44867 9.19094C0.526795 8.17283 0.0112292 6.85142 0 5.478C0.0109325 4.03111 0.589538 2.64637 1.61127 1.62183C2.633 0.5973 4.01615 0.0148998 5.463 0C6.52993 0.0105767 7.56766 0.349927 8.43469 0.971794C9.30173 1.59366 9.95588 2.46778 10.308 3.475C10.338 3.546 10.361 3.625 10.388 3.7C11.4017 3.4129 12.4333 3.19341 13.476 3.043C13.6493 3.01529 13.8245 3.00091 14 3C15.2256 3.10347 16.4365 3.33814 17.612 3.7C17.639 3.625 17.662 3.545 17.692 3.475C18.0441 2.46778 18.6983 1.59366 19.5653 0.971794C20.4323 0.349927 21.4701 0.0105767 22.537 0C23.9838 0.0151564 25.3668 0.597637 26.3885 1.62212C27.4101 2.6466 27.9888 4.03119 28 5.478C27.9888 6.85142 27.4732 8.17283 26.5513 9.19094C25.6295 10.2091 24.3656 10.8529 23 11ZM22 9C21.978 9 21.952 9 22 9V9ZM6 9C6.048 9 6.022 9 6 9V9ZM9.318 9C9.61388 9.15362 9.842 9.41188 9.9579 9.72448C10.0738 10.0371 10.0692 10.3816 9.945 10.691C9.83006 10.8449 9.67579 10.965 9.49841 11.0386C9.32102 11.1122 9.12706 11.1367 8.93694 11.1095C8.74681 11.0823 8.56753 11.0043 8.41795 10.8838C8.26837 10.7633 8.15402 10.6048 8.08691 10.4248C8.0198 10.2449 8.00241 10.0501 8.03658 9.86114C8.07074 9.67214 8.1552 9.49583 8.28107 9.35075C8.40693 9.20568 8.56956 9.09719 8.75185 9.0367C8.93415 8.97621 9.12937 8.96595 9.317 9.007L9.318 9ZM14 8.995C15.1 8.995 16 10.565 16 12.5C16 14.435 15.1 16 14 16C12.924 16 12.048 14.508 12 12.645V12.345C12.045 10.484 12.921 8.995 14 8.995ZM18.686 9.008C19.0183 9.03056 19.3306 9.17481 19.5633 9.41316C19.7959 9.65152 19.9325 9.96725 19.947 10.3C20.0558 10.4434 20.1266 10.6119 20.1529 10.7899C20.1792 10.968 20.16 11.1498 20.0972 11.3184C20.0344 11.4871 19.93 11.6372 19.7937 11.7547C19.6574 11.8722 19.4936 11.9533 19.3175 11.9906C19.1414 12.0279 18.9588 12.02 18.7865 11.9678C18.6143 11.9156 18.458 11.8207 18.3323 11.692C18.2065 11.5632 18.1154 11.4048 18.0672 11.2313C18.0191 11.0579 18.0156 10.8751 18.057 10.7C17.9321 10.3905 17.9271 10.0456 18.0428 9.73253C18.1586 9.4195 18.3868 9.16083 18.683 9.007L18.686 9.008Z" fill="#493B2B"/>
</svg>
