<svg width="33" height="33" viewBox="0 0 33 33" fill="none" xmlns="http://www.w3.org/2000/svg">
<path fill-rule="evenodd" clip-rule="evenodd" d="M16.9613 29.0265C16.9613 29.0265 26.949 22.368 26.949 14.5998C26.949 11.9509 25.8968 9.41045 24.0237 7.53739C22.1507 5.66433 19.6102 4.61206 16.9613 4.61206C14.3124 4.61206 11.772 5.66433 9.89896 7.53739C8.02591 9.41045 6.97363 11.9509 6.97363 14.5998C6.97363 22.368 16.9613 29.0265 16.9613 29.0265ZM21.6224 15.2656C21.6224 17.8398 19.5356 19.9266 16.9614 19.9266C14.3873 19.9266 12.3005 17.8398 12.3005 15.2656C12.3005 12.6915 14.3873 10.6047 16.9614 10.6047C19.5356 10.6047 21.6224 12.6915 21.6224 15.2656Z" fill="white"/>
<path d="M16.9613 29.0265L16.5876 29.5871C16.8139 29.7379 17.1088 29.7379 17.3351 29.5871L16.9613 29.0265ZM24.0237 7.53739L24.5001 7.06098V7.06098L24.0237 7.53739ZM9.89896 7.53739L9.42255 7.06098L9.89896 7.53739ZM6.97363 14.5998H6.29988H6.97363ZM26.2753 14.5998C26.2753 18.2131 23.9362 21.6555 21.4661 24.2628C20.2448 25.552 19.0212 26.6058 18.1022 27.3376C17.6433 27.7031 17.2616 27.9872 16.996 28.179C16.8633 28.2749 16.7596 28.3476 16.6899 28.3959C16.655 28.42 16.6287 28.4381 16.6114 28.4498C16.6028 28.4556 16.5965 28.4599 16.5925 28.4626C16.5905 28.4639 16.5891 28.4649 16.5882 28.4654C16.5878 28.4657 16.5876 28.4659 16.5875 28.466C16.5874 28.466 16.5875 28.466 16.5874 28.466C16.5875 28.4659 16.5876 28.4659 16.9613 29.0265C17.3351 29.5871 17.3353 29.5869 17.3355 29.5868C17.3356 29.5867 17.3359 29.5865 17.3361 29.5864C17.3366 29.586 17.3373 29.5856 17.3381 29.585C17.3397 29.584 17.3419 29.5825 17.3447 29.5806C17.3503 29.5768 17.3583 29.5714 17.3686 29.5645C17.3891 29.5505 17.4188 29.5302 17.4571 29.5037C17.5337 29.4506 17.6446 29.3727 17.785 29.2714C18.0656 29.0687 18.4642 28.7719 18.9416 28.3918C19.8953 27.6323 21.1687 26.5361 22.4443 25.1896C24.968 22.5256 27.6228 18.7547 27.6228 14.5998H26.2753ZM23.5473 8.01381C25.294 9.76051 26.2753 12.1296 26.2753 14.5998H27.6228C27.6228 11.7722 26.4995 9.06039 24.5001 7.06098L23.5473 8.01381ZM16.9613 5.28581C19.4316 5.28581 21.8006 6.2671 23.5473 8.01381L24.5001 7.06098C22.5007 5.06157 19.7889 3.93831 16.9613 3.93831V5.28581ZM10.3754 8.01381C12.1221 6.2671 14.4911 5.28581 16.9613 5.28581V3.93831C14.1337 3.93831 11.422 5.06157 9.42255 7.06098L10.3754 8.01381ZM7.64739 14.5998C7.64739 12.1296 8.62867 9.76051 10.3754 8.01381L9.42255 7.06098C7.42314 9.06039 6.29988 11.7722 6.29988 14.5998H7.64739ZM16.9613 29.0265C17.3351 28.4659 17.3352 28.4659 17.3353 28.466C17.3352 28.466 17.3353 28.466 17.3352 28.466C17.3351 28.4659 17.3348 28.4657 17.3344 28.4654C17.3336 28.4649 17.3322 28.4639 17.3302 28.4626C17.3262 28.4599 17.3199 28.4556 17.3112 28.4498C17.294 28.4381 17.2676 28.42 17.2328 28.3959C17.1631 28.3476 17.0594 28.2749 16.9267 28.179C16.6611 27.9872 16.2794 27.7031 15.8205 27.3376C14.9015 26.6058 13.6779 25.552 12.4566 24.2628C9.98648 21.6555 7.64739 18.2131 7.64739 14.5998H6.29988C6.29988 18.7547 8.95464 22.5256 11.4784 25.1896C12.754 26.5361 14.0274 27.6323 14.9811 28.3918C15.4584 28.7719 15.8571 29.0687 16.1377 29.2714C16.278 29.3727 16.389 29.4506 16.4656 29.5037C16.5039 29.5302 16.5336 29.5505 16.5541 29.5645C16.5644 29.5714 16.5724 29.5768 16.578 29.5806C16.5808 29.5825 16.583 29.584 16.5846 29.585C16.5854 29.5856 16.5861 29.586 16.5866 29.5864C16.5868 29.5865 16.5871 29.5867 16.5872 29.5868C16.5874 29.5869 16.5876 29.5871 16.9613 29.0265ZM16.9614 20.6003C19.9077 20.6003 22.2961 18.2119 22.2961 15.2656H20.9486C20.9486 17.4677 19.1635 19.2528 16.9614 19.2528V20.6003ZM11.6267 15.2656C11.6267 18.2119 14.0152 20.6003 16.9614 20.6003V19.2528C14.7594 19.2528 12.9742 17.4677 12.9742 15.2656H11.6267ZM16.9614 9.93094C14.0152 9.93094 11.6267 12.3194 11.6267 15.2656H12.9742C12.9742 13.0636 14.7594 11.2784 16.9614 11.2784V9.93094ZM22.2961 15.2656C22.2961 12.3194 19.9077 9.93094 16.9614 9.93094V11.2784C19.1635 11.2784 20.9486 13.0636 20.9486 15.2656H22.2961Z" fill="white"/>
</svg>
