<svg width="16" height="16" viewBox="0 0 16 16" fill="none" xmlns="http://www.w3.org/2000/svg">
<path d="M4.66732 2.83325C3.6548 2.83325 2.83398 3.65406 2.83398 4.66659V11.3333C2.83398 12.3458 3.6548 13.1666 4.66732 13.1666H11.334C12.3465 13.1666 13.1673 12.3458 13.1673 11.3333V8.54894H12.1673V11.3333C12.1673 11.7935 11.7942 12.1666 11.334 12.1666H4.66732C4.20708 12.1666 3.83398 11.7935 3.83398 11.3333V4.66659C3.83398 4.20635 4.20708 3.83325 4.66732 3.83325H7.45163V2.83325H4.66732Z" fill="#493B2B"/>
<path d="M13.1674 2.83325H9.39463V3.83325H11.4602L6.3138 8.9797L7.02091 9.68681L12.1674 4.54036V6.60598H13.1674V2.83325Z" fill="#493B2B"/>
</svg>
