<svg width="16" height="16" viewBox="0 0 16 16" fill="none" xmlns="http://www.w3.org/2000/svg">
<g opacity="0.8">
<path fill-rule="evenodd" clip-rule="evenodd" d="M8.0002 14.1037C8.0002 14.1037 12.9941 10.7744 12.9941 6.89034C12.9941 5.56589 12.4679 4.29568 11.5314 3.35915C10.5949 2.42262 9.32465 1.89648 8.0002 1.89648C6.67575 1.89648 5.40554 2.42262 4.46901 3.35915C3.53248 4.29568 3.00635 5.56589 3.00635 6.89034C3.00635 10.7744 8.0002 14.1037 8.0002 14.1037ZM10.3305 7.22327C10.3305 8.51035 9.28713 9.55373 8.00005 9.55373C6.71297 9.55373 5.66959 8.51035 5.66959 7.22327C5.66959 5.93619 6.71297 4.8928 8.00005 4.8928C9.28713 4.8928 10.3305 5.93619 10.3305 7.22327Z" fill="#493B2B"/>
<path d="M8.0002 14.1037L7.72285 14.5197C7.8908 14.6317 8.1096 14.6317 8.27755 14.5197L8.0002 14.1037ZM11.5314 3.35915L11.8849 3.0056L11.5314 3.35915ZM12.4941 6.89034C12.4941 8.63142 11.3627 10.3129 10.1342 11.6097C9.53009 12.2473 8.92433 12.7691 8.46903 13.1317C8.24177 13.3126 8.05301 13.4531 7.92204 13.5477C7.85657 13.595 7.80562 13.6307 7.7716 13.6543C7.75459 13.6661 7.74182 13.6748 7.7336 13.6804C7.72948 13.6832 7.7265 13.6852 7.7247 13.6864C7.7238 13.687 7.72319 13.6874 7.72288 13.6876C7.72273 13.6877 7.72265 13.6878 7.72264 13.6878C7.72264 13.6878 7.72269 13.6878 7.72269 13.6878C7.72276 13.6877 7.72285 13.6877 8.0002 14.1037C8.27755 14.5197 8.27768 14.5196 8.27783 14.5195C8.2779 14.5195 8.27807 14.5194 8.27822 14.5193C8.27852 14.5191 8.27889 14.5188 8.27934 14.5185C8.28024 14.5179 8.28144 14.5171 8.28294 14.5161C8.28594 14.5141 8.29012 14.5113 8.29546 14.5076C8.30613 14.5004 8.3214 14.4899 8.34097 14.4764C8.3801 14.4493 8.43644 14.4097 8.50753 14.3584C8.64965 14.2557 8.85104 14.1058 9.09196 13.9139C9.573 13.5309 10.2157 12.9776 10.8601 12.2974C12.1285 10.9586 13.4941 9.03336 13.4941 6.89034H12.4941ZM11.1778 3.7127C12.0206 4.55546 12.4941 5.69849 12.4941 6.89034H13.4941C13.4941 5.43328 12.9152 4.03589 11.8849 3.0056L11.1778 3.7127ZM8.0002 2.39648C9.19205 2.39648 10.3351 2.86994 11.1778 3.7127L11.8849 3.0056C10.8546 1.9753 9.45726 1.39648 8.0002 1.39648V2.39648ZM4.82257 3.7127C5.66533 2.86994 6.80836 2.39648 8.0002 2.39648V1.39648C6.54314 1.39648 5.14576 1.9753 4.11546 3.0056L4.82257 3.7127ZM3.50635 6.89034C3.50635 5.69849 3.97981 4.55546 4.82257 3.7127L4.11546 3.0056C3.08516 4.03589 2.50635 5.43328 2.50635 6.89034H3.50635ZM8.0002 14.1037C8.27755 13.6877 8.27764 13.6877 8.27771 13.6878C8.27771 13.6878 8.27777 13.6878 8.27776 13.6878C8.27776 13.6878 8.27768 13.6877 8.27752 13.6876C8.27721 13.6874 8.2766 13.687 8.2757 13.6864C8.2739 13.6852 8.27092 13.6832 8.26681 13.6804C8.25858 13.6748 8.24581 13.6661 8.2288 13.6543C8.19478 13.6307 8.14383 13.595 8.07837 13.5477C7.94739 13.4531 7.75863 13.3126 7.53138 13.1317C7.07607 12.7691 6.47031 12.2473 5.86625 11.6097C4.63768 10.3129 3.50635 8.63142 3.50635 6.89034H2.50635C2.50635 9.03336 3.87194 10.9586 5.1403 12.2974C5.7847 12.9776 6.4274 13.5309 6.90845 13.9139C7.14937 14.1058 7.35075 14.2557 7.49288 14.3584C7.56397 14.4097 7.6203 14.4493 7.65943 14.4764C7.679 14.4899 7.69427 14.5004 7.70494 14.5076C7.71028 14.5113 7.71447 14.5141 7.71746 14.5161C7.71896 14.5171 7.72016 14.5179 7.72106 14.5185C7.72151 14.5188 7.72189 14.5191 7.72219 14.5193C7.72233 14.5194 7.7225 14.5195 7.72258 14.5195C7.72272 14.5196 7.72285 14.5197 8.0002 14.1037ZM8.00005 10.0537C9.56327 10.0537 10.8305 8.78649 10.8305 7.22327H9.83052C9.83052 8.23421 9.01099 9.05373 8.00005 9.05373V10.0537ZM5.16959 7.22327C5.16959 8.78649 6.43683 10.0537 8.00005 10.0537V9.05373C6.98911 9.05373 6.16959 8.23421 6.16959 7.22327H5.16959ZM8.00005 4.3928C6.43683 4.3928 5.16959 5.66005 5.16959 7.22327H6.16959C6.16959 6.21233 6.98911 5.3928 8.00005 5.3928V4.3928ZM10.8305 7.22327C10.8305 5.66005 9.56327 4.3928 8.00005 4.3928V5.3928C9.01099 5.3928 9.83052 6.21233 9.83052 7.22327H10.8305Z" fill="#493B2B"/>
</g>
</svg>
