<svg width="16" height="16" viewBox="0 0 16 16" fill="none" xmlns="http://www.w3.org/2000/svg">
<path fill-rule="evenodd" clip-rule="evenodd" d="M7.42852 3.52376C5.27198 3.52376 3.52376 5.27198 3.52376 7.42852C3.52376 9.58506 5.27198 11.3333 7.42852 11.3333C8.43176 11.3333 9.34663 10.9549 10.0382 10.3331L10.3331 10.0382C10.9549 9.34663 11.3333 8.43176 11.3333 7.42852C11.3333 5.27198 9.58506 3.52376 7.42852 3.52376ZM11.5739 10.6311C12.2589 9.74562 12.6666 8.63468 12.6666 7.42852C12.6666 4.5356 10.3214 2.19043 7.42852 2.19043C4.5356 2.19043 2.19043 4.5356 2.19043 7.42852C2.19043 10.3214 4.5356 12.6666 7.42852 12.6666C8.63468 12.6666 9.74562 12.2589 10.6311 11.5739L13.1428 14.0856L14.0856 13.1428L11.5739 10.6311Z" fill="#493B2B"/>
</svg>
