<svg width="24" height="24" viewBox="0 0 24 24" fill="none" xmlns="http://www.w3.org/2000/svg">
<g opacity="0.8">
<path d="M11.1073 7.61877L7.84647 3.3623L7.47381 3.55688C7.23386 3.68216 6.80701 3.91735 6.37493 4.24636C5.94872 4.5709 5.48108 5.01378 5.19897 5.56617C3.69689 8.50743 4.81517 11.66 6.63857 14.1301C8.46341 16.6021 11.1097 18.559 13.0078 19.1689C14.9269 19.7856 16.4276 19.4742 17.5162 18.7832C18.583 18.1062 19.2128 17.0918 19.4723 16.3465L19.5877 16.0151L15.863 12.9899L13.4533 15.5519L13.4287 15.5374C13.2027 15.4041 12.8887 15.2133 12.5379 14.9838C11.8283 14.5197 10.9982 13.9171 10.4314 13.3253C9.8845 12.7542 9.42971 11.9168 9.10569 11.1903C8.94617 10.8327 8.82309 10.5128 8.74008 10.2829C8.72841 10.2506 8.71754 10.2201 8.70749 10.1915L11.1073 7.61877Z" fill="#493B2B"/>
</g>
</svg>
