<svg width="20" height="21" viewBox="0 0 20 21" fill="none" xmlns="http://www.w3.org/2000/svg">
<path fill-rule="evenodd" clip-rule="evenodd" d="M12.5585 2.42358H7.4421C2.77261 2.42358 1.66699 3.52921 1.66699 8.1987V13.3151C1.66699 17.9846 2.77261 19.0903 7.4421 19.0903H12.5585C17.228 19.0903 18.3337 17.9846 18.3337 13.3151V8.1987C18.3337 3.52921 17.228 2.42358 12.5585 2.42358ZM15.1761 7.43545C15.5591 7.43545 15.6456 7.62524 15.5591 7.88622C15.4241 8.48431 14.3032 10.0708 13.956 10.5623C13.8901 10.6556 13.852 10.7095 13.854 10.7095C13.7181 10.923 13.6687 11.0179 13.854 11.2551C13.921 11.3429 14.0631 11.4767 14.2254 11.6297C14.3924 11.787 14.5809 11.9645 14.7313 12.133C15.2749 12.7261 15.695 13.2243 15.8062 13.5683C15.9051 13.9123 15.7321 14.0903 15.3614 14.0903H14.0888C13.7515 14.0903 13.5777 13.9043 13.2071 13.508C13.0483 13.3381 12.8533 13.1295 12.5937 12.8803C11.84 12.1804 11.5064 12.0855 11.3211 12.0855C11.0616 12.0855 10.9874 12.1448 10.9874 12.5007V13.6039C10.9874 13.9005 10.8886 14.0784 10.0731 14.0784C8.72631 14.0784 7.23125 13.2955 6.181 11.8364C4.59945 9.70116 4.16699 8.08788 4.16699 7.76759C4.16699 7.58966 4.22877 7.42358 4.59945 7.42358H5.88446C6.20571 7.42358 6.32927 7.55407 6.45283 7.89808C7.08298 9.64185 8.13323 11.1721 8.56569 11.1721C8.72632 11.1721 8.80045 11.1009 8.80045 10.7095V8.90638C8.76995 8.39388 8.58411 8.17058 8.44631 8.00499C8.36085 7.9023 8.29386 7.8218 8.29386 7.70828C8.29386 7.56593 8.41742 7.42358 8.61511 7.42358H10.6168C10.8886 7.42358 10.9874 7.56593 10.9874 7.87435V10.3061C10.9874 10.5671 11.0986 10.662 11.1851 10.662C11.3458 10.662 11.4817 10.5671 11.7782 10.2824C12.6926 9.29784 13.3474 7.77946 13.3474 7.77946C13.4339 7.60152 13.5822 7.43545 13.9034 7.43545H15.1761Z" fill="#4680C2"/>
</svg>
