<svg width="24" height="24" viewBox="0 0 24 24" fill="none" xmlns="http://www.w3.org/2000/svg">
<path fill-rule="evenodd" clip-rule="evenodd" d="M21 12C21 16.9706 16.9706 21 12 21C10.3495 21 8.80269 20.5557 7.47278 19.7801L3 21L4.21985 16.5272C3.44431 15.1973 3 13.6505 3 12C3 7.02944 7.02944 3 12 3C16.9706 3 21 7.02944 21 12ZM9.43911 7.50555C9.60993 7.51253 9.79909 7.52059 9.97891 7.91808C10.1018 8.19019 10.3088 8.69774 10.4735 9.10179C10.5946 9.3987 10.6929 9.63985 10.7183 9.69041C10.7784 9.80979 10.8183 9.9492 10.7383 10.1087C10.7264 10.1322 10.7155 10.1545 10.705 10.1758C10.6448 10.2981 10.6006 10.3879 10.4987 10.5067C10.4584 10.5535 10.4167 10.604 10.375 10.6545C10.2926 10.7542 10.2103 10.8539 10.1388 10.9249C10.0185 11.044 9.8935 11.1732 10.0334 11.4121C10.1735 11.651 10.6548 12.4326 11.368 13.0654C12.134 13.7453 12.7996 14.0328 13.1375 14.1788C13.2039 14.2075 13.2576 14.2307 13.297 14.2504C13.5371 14.3698 13.6769 14.3499 13.8168 14.1904C13.9569 14.0311 14.4163 13.4935 14.5762 13.2546C14.7362 13.0157 14.8961 13.0554 15.116 13.135C15.3359 13.2147 16.5153 13.7924 16.7552 13.9118C16.8019 13.935 16.8456 13.956 16.8861 13.9754C17.0537 14.0559 17.1668 14.1102 17.2151 14.1904C17.275 14.2903 17.275 14.768 17.0751 15.3255C16.8753 15.8829 15.8958 16.4207 15.456 16.4605C15.4137 16.4643 15.3716 16.4692 15.3284 16.4743C14.9218 16.5218 14.4086 16.5818 12.5774 15.8631C10.3234 14.9785 8.8374 12.786 8.53079 12.3336C8.50573 12.2966 8.48851 12.2712 8.47944 12.2592L8.47652 12.2553C8.3464 12.0821 7.5 10.9556 7.5 9.78992C7.5 8.69039 8.04298 8.11404 8.29283 7.84884L8.30539 7.8355C8.31768 7.82243 8.32917 7.81018 8.33973 7.7987C8.55946 7.55978 8.81929 7.5 8.97932 7.5L9.00528 7.5C9.15644 7.49998 9.30679 7.49997 9.43911 7.50555Z" fill="#2DB10F"/>
</svg>
